<?xml version="1.0" encoding="UTF-8"?>
<svg width="30px" height="30px" viewBox="0 0 30 30" version="1.1" xmlns="http://www.w3.org/2000/svg" xmlns:xlink="http://www.w3.org/1999/xlink">
    <!-- Generator: Sketch 64 (93537) - https://sketch.com -->
    <title>icon/home</title>
    <desc>Created with Sketch.</desc>
    <g id="icon/home" stroke="none" stroke-width="1" fill="none" fill-rule="evenodd">
        <path d="M14.9070125,8.75785891 L23.5795713,15.3744893 L23.5795713,24.3765403 C23.5795713,24.5430794 23.5128225,24.7004532 23.3941326,24.8182601 C23.2740759,24.9362904 23.1134688,25 22.9446604,25 L22.9446604,25 L17.8218616,25 L17.8218616,18.3985704 C17.8218616,18.2335962 17.7551128,18.0719751 17.6364229,17.9564037 C17.5172775,17.8401616 17.35462,17.7733225 17.1867229,17.7733225 L17.1867229,17.7733225 L12.8120573,17.7733225 C12.645527,17.7733225 12.481047,17.8399381 12.3630407,17.9564037 C12.244123,18.0719751 12.177602,18.2338197 12.177602,18.3985704 L12.177602,18.3985704 L12.177602,25 L7.05571443,25 C6.88758949,25 6.72356516,24.934055 6.60510314,24.8182601 C6.48664112,24.7024651 6.41966452,24.5406204 6.41966452,24.3765403 L6.41966452,24.3765403 L6.41966452,15.3861135 L14.9070125,8.75785891 Z M14.22335,4.75852674 C14.6801122,4.41382442 15.3188958,4.41382442 15.7749746,4.75852674 L15.7749746,4.75852674 L25.50344,12.1014463 C26.0599837,12.5214824 26.164777,13.3052219 25.7360356,13.8508889 C25.3977354,14.2823256 24.8313959,14.4309813 24.3329441,14.2720427 L24.3329441,14.2720427 L15.1933716,7.2995328 C15.0211461,7.16808989 14.7796658,7.16943114 14.6078959,7.30400364 L14.6078959,7.30400364 L5.68633907,14.2695837 C5.5512468,14.3149628 5.4113705,14.3379877 5.27194982,14.3379877 C4.89127668,14.3379877 4.51356509,14.1703309 4.2638836,13.8508889 C3.83537004,13.3052219 3.93993555,12.5212589 4.49625141,12.1007757 L4.49625141,12.1007757 L6.46750495,10.6119835 L6.46750495,6.70580428 L9.01216022,6.70580428 L9.01216022,8.69197818 Z" id="Combined-Shape" fill="#FFFFFF" fill-rule="nonzero"></path>
    </g>
</svg>