<?xml version="1.0" encoding="UTF-8"?>
<svg width="30px" height="30px" viewBox="0 0 30 30" version="1.1" xmlns="http://www.w3.org/2000/svg" xmlns:xlink="http://www.w3.org/1999/xlink">
    <!-- Generator: Sketch 64 (93537) - https://sketch.com -->
    <title>icon/library</title>
    <desc>Created with Sketch.</desc>
    <g id="icon/library" stroke="none" stroke-width="1" fill="none" fill-rule="evenodd">
        <path d="M8.313786,7.11111111 L8.313786,19.2501697 C8.313786,20.649291 9.44799797,21.783503 10.8471193,21.783503 L22.0444444,21.783503 L22.0444444,22.3111111 C22.0444444,23.2438587 21.2883031,24 20.3555556,24 L7.68888889,24 C6.75614131,24 6,23.2438587 6,22.3111111 L6,8.8 C6,7.86725242 6.75614131,7.11111111 7.68888889,7.11111111 L8.313786,7.11111111 Z M23.3111111,5 C24.2438587,5 25,5.75614131 25,6.68888889 L25,18.5111111 C25,19.4438587 24.2438587,20.2 23.3111111,20.2 L11.4888889,20.2 C10.5561413,20.2 9.8,19.4438587 9.8,18.5111111 L9.8,6.68888889 C9.8,5.75614131 10.5561413,5 11.4888889,5 L23.3111111,5 Z M14.8666667,8.74319192 L14.8666667,16.7270303 L21.6222222,12.7351111 L14.8666667,8.74319192 Z" id="Combined-Shape" fill="#FFFFFF"></path>
    </g>
</svg>