<?xml version="1.0" encoding="UTF-8"?>
<svg width="30px" height="30px" viewBox="0 0 30 30" version="1.1" xmlns="http://www.w3.org/2000/svg" xmlns:xlink="http://www.w3.org/1999/xlink">
    <!-- Generator: Sketch 64 (93537) - https://sketch.com -->
    <title>icon/multi</title>
    <desc>Created with Sketch.</desc>
    <g id="icon/multi" stroke="none" stroke-width="1" fill="none" fill-rule="evenodd">
        <path d="M19.3201518,18.6666667 C24.3898695,18.6666667 28.5,20.0844339 28.5,21.8331962 C28.5,23.5822328 28.5,25 19.3201518,25 C10.5334351,25 10.1568615,23.7011516 10.1407226,22.0561615 L10.14,21.8331962 C10.14,20.0844339 14.2501305,18.6666667 19.3201518,18.6666667 Z M7.80907826,17.9654616 C9.74324695,17.9654616 10.3551876,18.1690477 11.4005699,18.4955619 C9.29001324,19.2615759 7.98,20.3320948 7.98,21.5164838 L7.98049857,21.7616924 C7.982686,22.1177003 7.9944705,22.4618913 8.05795821,22.7888865 L7.80907826,22.7894386 C1.83205675,22.7894386 1.51747667,21.820098 1.50091982,20.5858105 L1.5,20.3777634 C1.5,19.0454986 4.3245913,17.9654616 7.80907826,17.9654616 Z M19.0363826,6 C21.6831652,6 23.8287652,8.14754081 23.8287652,10.7970309 C23.8287652,13.4462077 21.6834783,16.8946807 19.0363826,16.8946807 C16.389287,16.8946807 14.243687,13.4462077 14.243687,10.7970309 C14.243687,8.14754081 16.389287,6 19.0363826,6 Z M7.57429526,8.91970507 C9.33892135,8.91970507 10.769217,10.3516078 10.769217,12.1178301 C10.769217,13.8840524 9.33892135,16.1832433 7.57429526,16.1832433 C5.80998222,16.1832433 4.37906048,13.8843657 4.37906048,12.1178301 C4.37906048,10.3512945 5.80966917,8.91970507 7.57429526,8.91970507 Z" id="Combined-Shape" fill="#FFFFFF" fill-rule="nonzero"></path>
    </g>
</svg>