<?xml version="1.0" encoding="UTF-8"?>
<svg width="30px" height="30px" viewBox="0 0 30 30" version="1.1" xmlns="http://www.w3.org/2000/svg" xmlns:xlink="http://www.w3.org/1999/xlink">
    <!-- Generator: Sketch 64 (93537) - https://sketch.com -->
    <title>icon/notifications</title>
    <desc>Created with Sketch.</desc>
    <g id="icon/notifications" stroke="none" stroke-width="1" fill="none" fill-rule="evenodd">
        <path d="M18.2093751,24.577914 C17.7607409,26.2350428 16.7153097,27.3999999 15.5001549,27.3999999 C14.2852765,27.3999999 13.2395689,26.2350428 12.7909347,24.577914 L12.7909347,24.577914 Z M15.5001549,4 C16.0344803,4 16.4676348,4.44222086 16.4676348,4.98773006 L16.4676348,4.98773006 L16.4676348,5.97574233 C19.7877496,6.45577914 22.3416202,9.36760736 22.3416202,12.8895706 L22.3416202,12.8895706 L22.3416202,19.2279755 L23.8768726,21.5736933 C24.0430027,21.8796074 24.0407913,22.2546626 23.8716206,22.5586012 C23.7021734,22.8625399 23.3911977,23.049362 23.0542382,23.049362 L23.0542382,23.049362 L7.94607157,23.049362 C7.60911213,23.049362 7.29841286,22.8625399 7.12868924,22.5586012 C6.95896561,22.2546626 6.95703066,21.8796074 7.1234372,21.5739755 L7.1234372,21.5739755 L8.65868965,19.2282577 L8.65868965,12.8895706 C8.65868965,9.36760736 11.2125603,6.45577914 14.532675,5.97574233 L14.532675,5.97574233 L14.532675,4.98773006 C14.532675,4.44222086 14.9658296,4 15.5001549,4 Z" id="Combined-Shape" fill="#FFFFFF" fill-rule="nonzero"></path>
    </g>
</svg>