<?xml version="1.0" encoding="UTF-8"?>
<svg width="30px" height="30px" viewBox="0 0 30 30" version="1.1" xmlns="http://www.w3.org/2000/svg" xmlns:xlink="http://www.w3.org/1999/xlink">
    <!-- Generator: Sketch 64 (93537) - https://sketch.com -->
    <title>icon/play</title>
    <desc>Created with Sketch.</desc>
    <g id="icon/play" stroke="none" stroke-width="1" fill="none" fill-rule="evenodd">
        <path d="M15,2 C22.1705258,2 28,7.82947353 28,15 C28,22.1705258 22.1705258,28 15,28 C7.82947353,28 2,22.1705258 2,15 C2,7.82947353 7.82947353,2 15,2 Z M14.9999997,4.0252631 C8.95157876,4.0252631 4.0252631,8.95157876 4.0252631,14.9999997 C4.0252631,21.0484205 8.95157876,25.9747362 14.9999997,25.9747362 C21.0484205,25.9747362 25.9747362,21.0484205 25.9747362,14.9999997 C25.9747362,8.95157876 21.0484205,4.0252631 14.9999997,4.0252631 Z M11.7431576,10.7852629 C11.7431576,10.1284208 12.4547366,9.74526295 13.002105,10.1010524 L13.002105,10.1010524 L19.3242101,14.3157891 C19.8168416,14.6442102 19.8168416,15.3557891 19.3242101,15.6842102 L19.3242101,15.6842102 L13.002105,19.8989469 C12.482105,20.2547364 11.7431576,19.8715785 11.7431576,19.2147364 L11.7431576,19.2147364 Z" id="Combined-Shape" fill="#FFFFFF" fill-rule="nonzero"></path>
    </g>
</svg>