<?xml version="1.0" encoding="UTF-8"?>
<svg width="30px" height="30px" viewBox="0 0 30 30" version="1.1" xmlns="http://www.w3.org/2000/svg" xmlns:xlink="http://www.w3.org/1999/xlink">
    <!-- Generator: Sketch 64 (93537) - https://sketch.com -->
    <title>icon/search</title>
    <desc>Created with Sketch.</desc>
    <g id="icon/search" stroke="none" stroke-width="1" fill="none" fill-rule="evenodd">
        <path d="M19.4660656,18.5526387 L19.0962536,18.1954376 C20.3905956,16.687255 21.1698423,14.7292636 21.1698423,12.5992865 C21.1698423,7.84983442 17.3264391,4 12.5849211,4 C7.84340316,4 4,7.84983442 4,12.5992865 C4,17.3487386 7.84340316,21.198573 12.5849211,21.198573 C14.7113401,21.198573 16.6660606,20.4180224 18.1717237,19.1215146 L18.5283281,19.4919454 L18.5283281,20.5370895 C18.5283281,20.5370895 23.8371213,25.9696146 24.4492089,26.5357866 C25.0612964,27.1019585 26.1582266,27.1558529 26.6466966,26.6665656 C27.1351666,26.1772782 27.1000417,25.2727211 26.6466966,24.8507153 C26.1933516,24.4287094 20.5094637,18.5526387 20.5094637,18.5526387 L19.4660656,18.5526387 Z M12.5849211,18.5526387 C9.29623597,18.5526387 6.6415142,15.8934747 6.6415142,12.5992865 C6.6415142,9.3050983 9.29623597,6.64593431 12.5849211,6.64593431 C15.8736063,6.64593431 18.5283281,9.3050983 18.5283281,12.5992865 C18.5283281,15.8934747 15.8736063,18.5526387 12.5849211,18.5526387 L12.5849211,18.5526387 Z" id="Shape" fill="#FFFFFF"></path>
    </g>
</svg>