<?xml version="1.0" encoding="UTF-8"?>
<svg width="30px" height="30px" viewBox="0 0 30 30" version="1.1" xmlns="http://www.w3.org/2000/svg" xmlns:xlink="http://www.w3.org/1999/xlink">
    <!-- Generator: Sketch 64 (93537) - https://sketch.com -->
    <title>icon/settings</title>
    <desc>Created with Sketch.</desc>
    <g id="icon/settings" stroke="none" stroke-width="1" fill="none" fill-rule="evenodd">
        <path d="M22.9838,12.206 L22.6098,11.2996 C23.8924,8.3406 23.8088,8.2526 23.558,7.9996 L21.919,6.365 L21.7562,6.2242 L21.567,6.2242 C21.4658,6.2242 21.1688,6.2242 18.6762,7.377 L17.7588,6.9986 C16.573,4 16.452,4 16.1,4 L13.7922,4 C13.4446,4 13.3104,4 12.2126,7.0096 L11.2996,7.388 C9.6166,6.662 8.6288,6.288 8.3626,6.288 L8.1426,6.288 L6.3826,8.048 C6.112,8.323 6.0174,8.4132 7.3748,11.326 L7.0008,12.2302 C4,13.4138 4,13.5282 4,13.9 L4,16.2056 C4,16.5686 4,16.6962 7.0118,17.7984 L7.3858,18.7004 C6.1032,21.6594 6.189,21.7474 6.4376,22.0004 L8.0766,23.6372 L8.2394,23.7802 L8.4308,23.7802 C8.5298,23.7802 8.8246,23.7802 11.3194,22.6252 L12.2346,23.0058 C13.4204,26 13.5414,26 13.9,26 L16.2034,26 C16.5576,26 16.683,26 17.7852,22.9926 L18.7026,22.6142 C20.3856,23.3402 21.369,23.7142 21.6352,23.7142 L21.8552,23.7142 L23.6328,21.9388 C23.8858,21.6792 23.9738,21.589 22.6252,18.6872 L22.997,17.783 C26,16.5862 26,16.4608 26,16.1 L26,13.7944 C26,13.4314 26,13.3038 22.9838,12.206 Z M15.0115002,20 C12.9879248,20.0046118 11.1610842,18.7890463 10.3837555,16.9207215 C9.60642681,15.0523968 10.0318977,12.8997427 11.4615566,11.4676277 C12.8912154,10.0355127 15.0431363,9.60634691 16.9127932,10.3804669 C18.78245,11.1545868 20.0011502,12.9793376 20,15.0029175 C19.9952987,17.7574302 17.7660013,19.9905576 15.0115002,20 L15.0115002,20 Z" id="Shape" fill="#FFFFFF" fill-rule="nonzero"></path>
    </g>
</svg>