<?xml version="1.0" encoding="UTF-8"?>
<svg width="23px" height="23px" viewBox="0 0 23 23" version="1.1" xmlns="http://www.w3.org/2000/svg" xmlns:xlink="http://www.w3.org/1999/xlink">
    <title>C990AB38-E2EA-4B61-B808-EF0D0661A54A</title>
    <g id="tablet" stroke="none" stroke-width="1" fill="none" fill-rule="evenodd">
        <g id="play" transform="translate(-672.000000, -701.000000)" fill="#FFFFFF" fill-rule="nonzero">
            <g id="Group-7" transform="translate(660.000000, 688.000000)">
                <g id="Group" transform="translate(12.000000, 13.000000)">
                    <path d="M10.3353471,0.079397 L5.09659713,5.318147 L0.219373317,5.318147 L0.219373317,6.191261 L0.219373317,17.541908 L5.09659713,17.541908 L10.3353471,22.780658 L14.1893736,22.780658 L14.1893736,0.079397 L10.3353471,0.079397 Z M19.8527504,4.022105 L18.6163879,5.256767 C20.2539426,6.894392 21.1743733,9.114104 21.1743733,11.430011 C21.1743733,13.746116 20.2541608,15.965597 18.6163879,17.603288 L19.8510476,18.839633 C21.8158498,16.874945 22.9206235,14.208578 22.9206235,11.430011 C22.9206235,8.651675 21.8172902,5.98676 19.8527504,4.022105 Z M17.3817368,6.491396 L16.1470857,7.726058 C17.1298138,8.708765 17.6818735,10.040249 17.6818735,11.430011 C17.6818735,12.81974 17.1297353,14.15129 16.1470857,15.133997 L17.3817368,16.368626 C18.6913893,15.058955 19.4281236,13.282169 19.4281236,11.430011 C19.4281236,9.577787 18.6914939,7.801133 17.3817368,6.491396 L17.3817368,6.491396 Z" id="Shape"></path>
                </g>
            </g>
        </g>
    </g>
</svg>