<?xml version="1.0" encoding="UTF-8"?>
<svg width="24px" height="24px" viewBox="0 0 24 24" version="1.1" xmlns="http://www.w3.org/2000/svg" xmlns:xlink="http://www.w3.org/1999/xlink">
    <title>5742E488-C3BC-4FBF-8BCE-A23ECDCC04A2</title>
    <g id="tablet" stroke="none" stroke-width="1" fill="none" fill-rule="evenodd">
        <g id="library-viev-1" transform="translate(-32.000000, -720.000000)" fill="#FFFFFF" fill-rule="nonzero">
            <g id="library/side_menu">
                <g id="icon/-exit" transform="translate(32.000000, 720.000000)">
                    <path d="M9.36435094,20.3469251 C9.36435094,20.5556351 9.25766441,20.7500061 9.08126232,20.862784 C8.90486024,20.9755619 8.68294556,20.991254 8.4923026,20.9044307 L4.04004052,18.8929072 C3.5289106,18.6594989 3.2009161,18.1513458 3.20003936,17.5915159 L3.20003936,4.75727162 C3.19864626,4.68696946 3.23431377,4.62106924 3.29405709,4.58356204 C3.35293902,4.54584376 3.42707109,4.54060523 3.49071425,4.56966527 L9.00426812,7.06348826 C9.22392899,7.16401103 9.36459129,7.38276669 9.36435094,7.6234462 L9.36435094,20.3469251 Z M23.5498315,10.951818 C23.5434957,10.9195272 23.5350135,10.8876164 23.5244317,10.8562615 C23.4786699,10.7470412 23.4067413,10.6484852 23.3138803,10.5677659 L20.3822032,7.89766085 C19.9867633,7.5688407 19.3773447,7.58102965 18.9981425,7.92534337 C18.6189403,8.2696571 18.6038287,8.82453853 18.9638223,9.18554378 L20.183015,10.2957037 L16.0935343,10.2957037 L16.0935343,12.1216247 L20.1856886,12.1216247 L18.9638223,13.2342192 C18.5721473,13.5906986 18.5719977,14.1688022 18.9634881,14.5254496 C19.3549786,14.8820971 19.9898597,14.8822333 20.3815348,14.525754 L23.3132119,11.8556489 C23.3178908,11.8513884 23.3192276,11.8459106 23.3239066,11.8416501 C23.4088901,11.7648958 23.4757616,11.6731448 23.5204212,11.5720225 C23.529779,11.5519374 23.5351263,11.5312436 23.5431473,11.5111584 C23.5530435,11.488296 23.5606499,11.4646657 23.5658735,11.4405562 C23.5722265,11.4098038 23.5762465,11.3786895 23.577905,11.3474342 C23.5912009,11.2909858 23.5985866,11.2335162 23.5999628,11.1757976 C23.5950235,11.0995105 23.5788363,11.024175 23.5518368,10.951818 L23.5498315,10.951818 Z M12.0602778,11.1956322 C12.0602778,10.642967 12.4029332,10.285671 12.931435,10.285671 L16.0468218,10.285671 L16.0468218,3.81309264 C16.0468218,3.47449092 15.7711024,3.2 15.4309852,3.2 L4.31505945,3.2 L10.013601,5.79133821 C10.6698666,6.0916281 11.0912356,6.74399324 11.0933679,7.46303746 L11.0933679,18.9932663 L15.4322169,18.9932663 C15.772334,18.9932663 16.0480535,18.7187754 16.0480535,18.3801737 L16.0480535,12.1314683 L12.9326666,12.1314683 C12.4029332,12.1314683 12.0602778,11.7482975 12.0602778,11.1956322 Z" id="Shape"></path>
                </g>
            </g>
        </g>
    </g>
</svg>