<?xml version="1.0" encoding="UTF-8"?>
<svg width="26px" height="28px" viewBox="0 0 26 28" version="1.1" xmlns="http://www.w3.org/2000/svg" xmlns:xlink="http://www.w3.org/1999/xlink">
    <title>85AF1E5E-7BA4-42A7-AA34-FF7B13A51D6E</title>
    <g id="tablet" stroke="none" stroke-width="1" fill="none" fill-rule="evenodd">
        <g id="play" transform="translate(-740.000000, -698.000000)" fill="#FFFFFF" fill-rule="nonzero">
            <g id="Group-8" transform="translate(728.000000, 688.000000)">
                <g id="noun_Repeat_72255" transform="translate(12.000000, 10.800000)">
                    <path d="M13.2300511,26.3699489 C6.31999149,26.3699489 0.906587234,20.6807489 0.906587234,13.416817 C0.906587234,13.1067574 1.15822979,12.8551149 1.46828936,12.8551149 L4.79468936,12.8551149 C5.10362553,12.8551149 5.35639149,13.1067574 5.35639149,13.416817 C5.35639149,19.8483064 9.4242383,22.1392085 13.2303319,22.1392085 C17.1973532,22.1392085 20.6765362,18.5181957 20.6765362,14.3922128 C20.6765362,10.5153447 17.0302468,7.23949787 12.7127234,7.23949787 L8.63897872,7.23949787 L8.63897872,9.50989787 C8.63897872,9.71435745 8.52888511,9.90084255 8.35138723,10.0008255 C8.17388936,10.1008085 7.95707234,10.0951915 7.78519149,9.98959149 L0.421276596,5.47097872 C0.253889362,5.36762553 0.151659574,5.18563404 0.152773814,4.9890383 C0.153906383,4.79244255 0.257259574,4.61045106 0.425770213,4.50934468 L7.78968511,0.112340426 C7.96156596,0.00786382979 8.17838298,0.00337021277 8.35475745,0.1056 C8.53113191,0.204459574 8.63897872,0.390944681 8.63897872,0.594280851 L8.63897872,2.7444766 L12.7124426,2.7444766 C19.4407915,2.7444766 25.1249362,8.17051915 25.1249362,14.5930213 C25.1249362,21.0862979 19.788766,26.3699489 13.2300511,26.3699489 Z" id="Path"></path>
                </g>
            </g>
        </g>
    </g>
</svg>