<?xml version="1.0" encoding="UTF-8"?>
<svg width="24px" height="24px" viewBox="0 0 24 24" version="1.1" xmlns="http://www.w3.org/2000/svg" xmlns:xlink="http://www.w3.org/1999/xlink">
    <title>B3D96F53-29CF-4F38-910A-2DDC8B3A1144</title>
    <g id="tablet" stroke="none" stroke-width="1" fill="none" fill-rule="evenodd">
        <g id="library-viev-1" transform="translate(-32.000000, -685.000000)" fill="#FFFFFF" fill-rule="nonzero">
            <g id="library/side_menu">
                <g id="icon/settings" transform="translate(32.000000, 685.000000)">
                    <path d="M18.38704,9.7648 L18.08784,9.03968 C19.11392,6.67248 19.04704,6.60208 18.8464,6.39968 L17.5352,5.092 L17.40496,4.97936 L17.2536,4.97936 C17.17264,4.97936 16.93504,4.97936 14.94096,5.9016 L14.20704,5.59888 C13.2584,3.2 13.1616,3.2 12.88,3.2 L11.03376,3.2 C10.75568,3.2 10.64832,3.2 9.77008,5.60768 L9.03968,5.9104 C7.69328,5.3296 6.90304,5.0304 6.69008,5.0304 L6.51408,5.0304 L5.10608,6.4384 C4.8896,6.6584 4.81392,6.73056 5.89984,9.0608 L5.60064,9.78416 C3.2,10.73104 3.2,10.82256 3.2,11.12 L3.2,12.96448 C3.2,13.25488 3.2,13.35696 5.60944,14.23872 L5.90864,14.96032 C4.88256,17.32752 4.9512,17.39792 5.15008,17.60032 L6.46128,18.90976 L6.59152,19.02416 L6.74464,19.02416 C6.82384,19.02416 7.05968,19.02416 9.05552,18.10016 L9.78768,18.40464 C10.73632,20.8 10.83312,20.8 11.12,20.8 L12.96272,20.8 C13.24608,20.8 13.3464,20.8 14.22816,18.39408 L14.96208,18.09136 C16.30848,18.67216 17.0952,18.97136 17.30816,18.97136 L17.48416,18.97136 L18.90624,17.55104 C19.10864,17.34336 19.17904,17.2712 18.10016,14.94976 L18.3976,14.2264 C20.8,13.26896 20.8,13.16864 20.8,12.88 L20.8,11.03552 C20.8,10.74512 20.8,10.64304 18.38704,9.7648 Z M12.0092002,16 C10.3903398,16.0036895 8.92886735,15.0312371 8.3070044,13.5365772 C7.68514145,12.0419174 8.02551819,10.3197942 9.16924527,9.17410215 C10.3129724,8.02841013 12.0345091,7.68507753 13.5302346,8.3043735 C15.02596,8.92366948 16.0009202,10.3834701 16,12.002334 C15.9962389,14.2059442 14.212801,15.9924461 12.0092002,16 L12.0092002,16 Z" id="Shape"></path>
                </g>
            </g>
        </g>
    </g>
</svg>