<?xml version="1.0" encoding="UTF-8"?>
<svg width="24px" height="24px" viewBox="0 0 24 24" version="1.1" xmlns="http://www.w3.org/2000/svg" xmlns:xlink="http://www.w3.org/1999/xlink">
    <title>7412D663-0FC0-403C-880B-F3DAA78FD576</title>
    <g id="tablet" stroke="none" stroke-width="1" fill="none" fill-rule="evenodd">
        <g id="play" transform="translate(-16.000000, -41.000000)" fill="#FFFFFF" fill-rule="nonzero">
            <g id="Navigation-Bar/exit">
                <g id="icon/steps" transform="translate(16.000000, 41.000000)">
                    <path d="M8.42394419,18.1084283 C9.96684343,17.6872302 10.9823256,16.4537956 11.4601696,18.2667676 C11.938269,20.0797396 11.0750836,21.8906316 9.53218434,22.3118297 C7.9892851,22.7330278 6.3510726,21.6046328 5.87322868,19.7916609 C5.39512923,17.9786889 6.88104495,18.5296264 8.42394419,18.1084283 Z M12.5395347,13.444569 C13.0173786,11.631597 14.0328608,12.8650315 15.57576,13.2862297 C17.1184037,13.7071678 18.6043195,13.1564902 18.1264755,14.9694622 C17.6483761,16.7824342 16.0104191,17.9108292 14.4675199,17.4896311 C12.9248762,17.0686929 12.0616907,15.2575409 12.5395347,13.444569 Z M5.35909929,6.49999972 C8.31278798,5.69374329 10.8903343,11.3734181 10.5905958,13.2256499 C10.2709259,15.2011212 11.0242328,16.1971768 8.12420573,16.9886133 C5.22392312,17.7803098 5.41327197,16.6129149 4.13816974,14.9868821 C2.98751137,13.5197086 2.40541059,7.30625615 5.35909929,6.49999972 Z M13.4093639,8.40345129 C13.1096254,6.55147949 15.6871718,0.871804639 18.6408605,1.67780107 C21.5945492,2.4840575 21.0124484,8.69750998 19.8620455,10.1646835 C18.5866878,11.7907163 18.7757811,12.9578511 15.875754,12.1664146 C12.9757269,11.3747181 13.7290338,10.3789225 13.4093639,8.40345129 Z" id="Combined-Shape-Copy"></path>
                </g>
            </g>
        </g>
    </g>
</svg>