<?xml version="1.0" encoding="UTF-8"?>
<svg width="210px" height="205px" viewBox="0 0 210 205" version="1.1" xmlns="http://www.w3.org/2000/svg" xmlns:xlink="http://www.w3.org/1999/xlink">
    <!-- Generator: Sketch 64 (93537) - https://sketch.com -->
    <title>medal/bronze</title>
    <desc>Created with Sketch.</desc>
    <defs>
        <linearGradient x1="70.8796819%" y1="14.9118466%" x2="26.6497641%" y2="100%" id="linearGradient-1">
            <stop stop-color="#832F98" offset="0%"></stop>
            <stop stop-color="#39136B" offset="100%"></stop>
        </linearGradient>
        <linearGradient x1="66.52858%" y1="34.9116967%" x2="73.1980787%" y2="14.0254532%" id="linearGradient-2">
            <stop stop-color="#9A6337" offset="0%"></stop>
            <stop stop-color="#D79C69" offset="100%"></stop>
        </linearGradient>
        <linearGradient x1="32.0743005%" y1="0%" x2="66.2125422%" y2="100%" id="linearGradient-3">
            <stop stop-color="#923C88" offset="0%"></stop>
            <stop stop-color="#7D2AA1" offset="100%"></stop>
        </linearGradient>
        <linearGradient x1="28.945603%" y1="8.98006053%" x2="75.1632887%" y2="91.3791125%" id="linearGradient-4">
            <stop stop-color="#FDDC3A" offset="0%"></stop>
            <stop stop-color="#FBDB3D" offset="100%"></stop>
        </linearGradient>
        <linearGradient x1="50%" y1="9.11059881%" x2="50%" y2="95.4172084%" id="linearGradient-5">
            <stop stop-color="#FFC42C" offset="1.11116976%"></stop>
            <stop stop-color="#FFC732" offset="100%"></stop>
        </linearGradient>
        <linearGradient x1="30.151139%" y1="6.73079111%" x2="74.4263286%" y2="86.5663491%" id="linearGradient-6">
            <stop stop-color="#FDDE48" offset="0%"></stop>
            <stop stop-color="#FBDB3D" offset="100%"></stop>
        </linearGradient>
        <linearGradient x1="59.2291228%" y1="22.2178144%" x2="35.1227896%" y2="85.1352824%" id="linearGradient-7">
            <stop stop-color="#D94D2D" offset="0%"></stop>
            <stop stop-color="#7E0E5A" offset="100%"></stop>
        </linearGradient>
        <linearGradient x1="59.2291228%" y1="22.2178144%" x2="34.8199948%" y2="85.9255761%" id="linearGradient-8">
            <stop stop-color="#D94D2D" offset="0%"></stop>
            <stop stop-color="#7E0E5A" offset="98.7595017%"></stop>
        </linearGradient>
        <linearGradient x1="28.945603%" y1="8.98006053%" x2="73.475016%" y2="88.3691809%" id="linearGradient-9">
            <stop stop-color="#EAB280" offset="0%"></stop>
            <stop stop-color="#BD8455" offset="100%"></stop>
        </linearGradient>
        <linearGradient x1="32.4741165%" y1="13.1041165%" x2="72.8461653%" y2="92.9060615%" id="linearGradient-10">
            <stop stop-color="#CB8851" offset="0%"></stop>
            <stop stop-color="#976035" offset="100%"></stop>
        </linearGradient>
        <linearGradient x1="30.151139%" y1="6.73079111%" x2="73.7976321%" y2="85.4327044%" id="linearGradient-11">
            <stop stop-color="#ECB482" offset="0%"></stop>
            <stop stop-color="#BC7E4B" offset="100%"></stop>
        </linearGradient>
    </defs>
    <g id="Symbols" stroke="none" stroke-width="1" fill="none" fill-rule="evenodd">
        <g id="Group-2-Copy-6" transform="translate(10.000000, 5.000000)">
            <polygon id="Path-4" fill="#4F1B78" points="152.295862 0 159.465177 16.0356044 29.3986081 16.0356044 37.3196591 0 80.917477 0 78.3751693 16.0356044 111.377937 16.0356044 107.592467 0"></polygon>
            <path d="M107.709161,0 L152.338242,0 C138.457157,40.3034318 131.018977,62.1817266 130.023702,65.6348843 C128.530789,70.8146209 124.568453,80.6234554 116.138807,80.6234554 C110.519043,80.6234554 98.8290705,80.6234554 81.0688889,80.6234554 L107.709161,0 Z" id="Path-3" fill="url(#linearGradient-1)"></path>
            <path d="M115.400672,69.487619 L73.0176792,69.487619 C63.4418916,69.487619 55.6791819,77.2476892 55.6791819,86.8202209 L55.6791819,117.633735 C55.6791819,127.206267 63.4418916,134.966337 73.0176792,134.966337 L115.400672,134.966337 C124.97646,134.966337 132.73917,127.206267 132.73917,117.633735 L132.73917,86.8202209 C132.73917,77.2476892 124.97646,69.487619 115.400672,69.487619 Z M115.400672,79.1168423 C119.656578,79.1168423 123.106671,82.5657623 123.106671,86.8202209 L123.106671,117.633735 C123.106671,121.888194 119.656578,125.337114 115.400672,125.337114 L73.0176792,125.337114 C68.7617736,125.337114 65.3116804,121.888194 65.3116804,117.633735 L65.3116804,86.8202209 C65.3116804,82.5657623 68.7617736,79.1168423 73.0176792,79.1168423 L115.400672,79.1168423 Z" id="Rectangle" fill="url(#linearGradient-2)" fill-rule="nonzero"></path>
            <path d="M111.358364,80.6234554 C107.895599,80.6234554 97.8654384,53.7489703 81.2678818,0 L37.4164103,0 C50.5188039,40.4101973 57.8595013,62.4512986 59.4385024,66.123304 C61.807004,71.631312 66.1162464,80.6234554 75.9414875,80.6234554 C85.7667286,80.6234554 99.5818079,80.6234554 111.358364,80.6234554 Z" id="Path" fill="url(#linearGradient-3)" fill-rule="nonzero"></path>
            <path d="M94.2091758,87.7503907 C66.0873856,87.7503907 43.2070452,110.630731 43.2070452,138.752521 C43.2070452,166.874312 66.0873856,189.754652 94.2091758,189.754652 C122.330966,189.754652 145.211306,166.874312 145.211306,138.752521 C145.211306,110.630731 122.330966,87.7503907 94.2091758,87.7503907 Z" id="Shape" fill="url(#linearGradient-4)" fill-rule="nonzero"></path>
            <path d="M94.4318926,97.9953602 C72.0818235,97.9953602 53.8974481,116.179736 53.8974481,138.529805 C53.8974481,160.879874 72.0818235,179.064249 94.4318926,179.064249 C116.781962,179.064249 134.966337,160.879874 134.966337,138.529805 C134.966337,116.179736 116.781962,97.9953602 94.4318926,97.9953602 Z" id="Shape" fill="url(#linearGradient-5)" fill-rule="nonzero"></path>
            <path d="M94.4318926,97.9953602 C116.781962,97.9953602 134.966337,116.179736 134.966337,138.529805 C134.966337,138.692837 134.965369,138.855647 134.96344,139.01823 L134.966337,139.49491 C134.966337,117.676986 117.214923,99.9255718 95.3969984,99.9255718 C73.5790738,99.9255718 55.8276597,117.676986 55.8276597,139.49491 C55.8276597,161.153461 73.3206818,178.804693 94.9195314,179.061413 L94.4318926,179.064249 C72.0818235,179.064249 53.8974481,160.879874 53.8974481,138.529805 C53.8974481,116.179736 72.0818235,97.9953602 94.4318926,97.9953602 Z" id="Combined-Shape" fill="#FEA445" fill-rule="nonzero"></path>
            <path d="M94.2091758,106.013162 C76.1557579,106.013162 61.4698168,120.70378 61.4698168,138.752521 C61.4698168,156.801262 76.1557579,171.49188 94.2091758,171.49188 C112.262594,171.49188 126.948535,156.801262 126.948535,138.752521 C126.948535,120.70378 112.262594,106.013162 94.2091758,106.013162 Z" id="Shape" fill="url(#linearGradient-6)" fill-rule="nonzero"></path>
            <path d="M94.876966,149.626127 L82.9393069,156.917603 C82.5362184,157.163808 82.009862,157.036629 81.7636571,156.63354 C81.6458759,156.440708 81.6091929,156.209101 81.661621,155.98931 L84.9072879,142.382731 C84.9816996,142.070781 84.8753328,141.743417 84.6317724,141.534782 L74.0082265,132.434584 C73.6495105,132.127305 73.6078121,131.58741 73.9150906,131.228694 C74.0620885,131.057089 74.2710245,130.950631 74.4962591,130.932574 L88.4398506,129.814722 C88.7595279,129.789094 89.0379998,129.586772 89.1611596,129.290661 L94.5331061,116.374952 C94.714496,115.938839 95.2150813,115.732345 95.6511948,115.913734 C95.8598258,116.000509 96.0256383,116.166321 96.1124128,116.374952 L101.484359,129.290661 C101.607519,129.586772 101.885991,129.789094 102.205668,129.814722 L116.14926,130.932574 C116.620081,130.970319 116.971158,131.382594 116.933413,131.853415 C116.915356,132.07865 116.808897,132.287586 116.637292,132.434584 L106.013747,141.534782 C105.770186,141.743417 105.663819,142.070781 105.738231,142.382731 L108.983898,155.98931 C109.093491,156.448752 108.809884,156.910046 108.350442,157.019639 C108.130652,157.072067 107.899044,157.035384 107.706212,156.917603 L95.768553,149.626127 C95.4948646,149.458959 95.1506543,149.458959 94.876966,149.626127 Z" id="Star" fill="#FFFFFF"></path>
            <path d="M189.754652,125.285631 L189.754652,109.772509 L186.640217,109.772509 C184.372908,109.772509 182.186574,110.120003 180.127933,110.765349 C180.423804,106.607832 179.526847,102.419289 177.430832,98.6589082 L169.115289,83.7414896 L166.352785,85.3920858 C157.296007,90.8061656 153.577372,101.584683 156.92539,111.181101 C154.539732,110.284442 151.967209,109.772509 149.270108,109.772509 L146.155672,109.772509 L146.155672,125.285631 C146.155672,125.962004 146.267792,126.629068 146.333195,127.30544 L145.373949,129.216657 C140.351922,139.684912 129.621136,157.867646 129.621136,176.106621 C130.854452,178.750057 132.508217,181.219746 134.669635,183.391583 C139.559299,188.228574 145.968806,190.645519 152.381429,190.645519 C158.818966,190.645519 165.262733,188.203753 170.155511,183.32953 L178.586287,174.930726 L176.384381,172.73717 C174.469004,170.829056 172.316929,169.30877 170.024704,168.145286 C170.663164,167.893974 171.301623,167.639558 171.92451,167.329296 C177.374772,164.614499 181.43911,159.948152 183.363831,154.192784 L187.462428,141.94052 L184.506829,140.963193 C184.126867,140.835985 183.740677,140.749112 183.354488,140.64052 C187.30982,136.70329 189.754652,131.273697 189.754652,125.285631 Z M183.525781,125.285631 C183.525781,132.77847 178.165838,139.045771 171.06804,140.485389 L171.06804,131.49088 C171.06804,123.998042 176.427983,117.730741 183.525781,116.291123 L183.525781,125.285631 Z M166.953871,92.6491245 L171.983684,101.668454 C174.207391,105.658429 174.54375,110.321674 172.983418,114.58468 C171.161473,116.046016 169.588684,117.795896 168.317994,119.759857 C168.09064,119.291361 167.90066,118.810454 167.64839,118.354368 L163.920411,111.671315 C160.335696,105.239575 161.740307,97.4395767 166.953871,92.6491245 Z M152.381429,116.28802 C159.479227,117.730741 164.83917,123.99494 164.83917,131.487778 L164.83917,143.491832 C164.465438,143.733837 164.107277,143.988252 163.749117,144.251975 C162.914449,137.165581 158.924857,130.581811 152.499777,126.647684 C152.459289,126.191598 152.381429,125.741717 152.381429,125.285631 L152.381429,116.28802 Z M155.6547,155.328344 L151.979666,166.311635 C151.855089,166.345764 151.724283,166.367482 151.599705,166.404714 C152.250622,164.161516 152.599439,161.815932 152.599439,159.414501 C152.599439,153.662235 150.652917,148.207821 147.090003,143.786581 C147.10869,141.093503 147.716005,138.412836 148.936863,135.983481 L150.534568,132.797085 C156.794583,137.435509 159.261216,145.710208 156.548543,153.082044 C156.218413,153.808058 155.913198,154.555791 155.6547,155.328344 Z M146.373683,159.414501 C146.373683,164.446958 144.408474,169.175357 140.798844,172.774402 L137.061521,176.630964 C135.840663,174.946239 134.934362,173.066049 134.330162,171.074164 C139.032959,165.297077 142.493097,158.499227 144.414703,151.087057 C145.685393,153.646722 146.373683,156.476315 146.373683,159.414501 Z M165.751699,178.939317 C159.189584,185.479649 148.958664,186.149816 141.518278,180.962228 L145.240028,177.124281 C151.861318,170.528102 162.213701,169.857935 169.594912,175.113781 L165.751699,178.939317 Z M177.455747,152.22572 C174.90191,159.864381 167.224827,164.409726 159.529058,163.379655 L161.534754,157.385384 C161.86177,156.709012 162.16387,156.026435 162.422368,155.337652 C165.546147,148.912117 172.488223,145.201378 179.495702,146.138371 L177.455747,152.22572 Z" id="Shape" fill="url(#linearGradient-7)" fill-rule="nonzero"></path>
            <path d="M60.1335165,125.285631 L60.1335165,109.772509 L57.0190812,109.772509 C54.7517723,109.772509 52.5654387,110.120003 50.506797,110.765349 C50.8026684,106.607832 49.905711,102.419289 47.8096961,98.6589082 L39.4941538,83.7414896 L36.7316498,85.3920858 C27.6748719,90.8061656 23.9562362,101.584683 27.3042541,111.181101 C24.9185967,110.284442 22.3460732,109.772509 19.6489722,109.772509 L16.5345369,109.772509 L16.5345369,125.285631 C16.5345369,125.962004 16.6466566,126.629068 16.7120597,127.30544 L15.7528137,129.216657 C10.7307868,139.684912 0,157.867646 0,176.106621 C1.23331637,178.750057 2.88708151,181.219746 5.0484996,183.391583 C9.93816299,188.228574 16.3476708,190.645519 22.7602931,190.645519 C29.1978308,190.645519 35.6415974,188.203753 40.5343752,183.32953 L48.9651516,174.930726 L46.7632458,172.73717 C44.8478681,170.829056 42.6957933,169.30877 40.403569,168.145286 C41.0420282,167.893974 41.6804874,167.639558 42.3033745,167.329296 C47.7536362,164.614499 51.8179743,159.948152 53.7426953,154.192784 L57.8412921,141.94052 L54.885693,140.963193 C54.5057319,140.835985 54.1195419,140.749112 53.733352,140.64052 C57.6886848,136.70329 60.1335165,131.273697 60.1335165,125.285631 Z M53.9046459,125.285631 C53.9046459,132.77847 48.5447028,139.045771 41.4469048,140.485389 L41.4469048,131.49088 C41.4469048,123.998042 46.8068479,117.730741 53.9046459,116.291123 L53.9046459,125.285631 Z M37.3327358,92.6491245 L42.3625487,101.668454 C44.5862555,105.658429 44.9226146,110.321674 43.3622825,114.58468 C41.5403378,116.046016 39.967548,117.795896 38.6968584,119.759857 C38.4695046,119.291361 38.2795241,118.810454 38.0272548,118.354368 L34.2992758,111.671315 C30.7145608,105.239575 32.1191711,97.4395767 37.3327358,92.6491245 Z M22.7602931,116.28802 C29.8580911,117.730741 35.2180342,123.99494 35.2180342,131.487778 L35.2180342,143.491832 C34.844302,143.733837 34.4861419,143.988252 34.1279819,144.251975 C33.2933132,137.165581 29.3037216,130.581811 22.8786416,126.647684 C22.8381539,126.191598 22.7602931,125.741717 22.7602931,125.285631 L22.7602931,116.28802 Z M26.0335645,155.328344 L22.3585309,166.311635 C22.2339535,166.345764 22.1031472,166.367482 21.9785698,166.404714 C22.6294868,164.161516 22.9783035,161.815932 22.9783035,159.414501 C22.9783035,153.662235 21.0317815,148.207821 17.4688675,143.786581 C17.4875541,141.093503 18.094869,138.412836 19.3157276,135.983481 L20.9134329,132.797085 C27.1734479,137.435509 29.6400806,145.710208 26.9274075,153.082044 C26.5972773,153.808058 26.2920627,154.555791 26.0335645,155.328344 Z M16.7525474,159.414501 C16.7525474,164.446958 14.7873387,169.175357 11.1777082,172.774402 L7.4403859,176.630964 C6.21952726,174.946239 5.3132266,173.066049 4.70902615,171.074164 C9.41182343,165.297077 12.871961,158.499227 14.7935676,151.087057 C16.0642572,153.646722 16.7525474,156.476315 16.7525474,159.414501 Z M36.1305637,178.939317 C29.5684486,185.479649 19.3375287,186.149816 11.8971428,180.962228 L15.618893,177.124281 C22.2401824,170.528102 32.5925653,169.857935 39.9737769,175.113781 L36.1305637,178.939317 Z M47.8346115,152.22572 C45.2807746,159.864381 37.6036916,164.409726 29.907922,163.379655 L31.9136184,157.385384 C32.2406341,156.709012 32.5427343,156.026435 32.8012324,155.337652 C35.925011,148.912117 42.8670873,145.201378 49.8745667,146.138371 L47.8346115,152.22572 Z" id="Shape-Copy-2" fill="url(#linearGradient-8)" fill-rule="nonzero" transform="translate(30.066758, 137.193504) scale(-1, 1) translate(-30.066758, -137.193504) "></path>
            <path d="M94.2091758,87.7503907 C66.0873856,87.7503907 43.2070452,110.630731 43.2070452,138.752521 C43.2070452,166.874312 66.0873856,189.754652 94.2091758,189.754652 C122.330966,189.754652 145.211306,166.874312 145.211306,138.752521 C145.211306,110.630731 122.330966,87.7503907 94.2091758,87.7503907 Z" id="Shape" fill="url(#linearGradient-9)" fill-rule="nonzero"></path>
            <path d="M94.4318926,97.9953602 C72.0818235,97.9953602 53.8974481,116.179736 53.8974481,138.529805 C53.8974481,160.879874 72.0818235,179.064249 94.4318926,179.064249 C116.781962,179.064249 134.966337,160.879874 134.966337,138.529805 C134.966337,116.179736 116.781962,97.9953602 94.4318926,97.9953602 Z" id="Shape" fill="url(#linearGradient-10)" fill-rule="nonzero"></path>
            <path d="M94.4318926,97.9953602 C116.781962,97.9953602 134.966337,116.179736 134.966337,138.529805 C134.966337,138.692837 134.965369,138.855647 134.96344,139.01823 L134.966337,139.49491 C134.966337,117.676986 117.214923,99.9255718 95.3969984,99.9255718 C73.5790738,99.9255718 55.8276597,117.676986 55.8276597,139.49491 C55.8276597,161.153461 73.3206818,178.804693 94.9195314,179.061413 L94.4318926,179.064249 C72.0818235,179.064249 53.8974481,160.879874 53.8974481,138.529805 C53.8974481,116.179736 72.0818235,97.9953602 94.4318926,97.9953602 Z" id="Combined-Shape" fill="#A45C2E" fill-rule="nonzero"></path>
            <path d="M93.7637424,106.458596 C75.7103244,106.458596 61.0243834,121.149214 61.0243834,139.197955 C61.0243834,157.246696 75.7103244,171.937314 93.7637424,171.937314 C111.81716,171.937314 126.503101,157.246696 126.503101,139.197955 C126.503101,121.149214 111.81716,106.458596 93.7637424,106.458596 Z" id="Shape" fill="url(#linearGradient-11)" fill-rule="nonzero"></path>
            <path d="M94.4315325,131.942418 L89.3011731,135.076022 C88.8980846,135.322227 88.3717282,135.195048 88.1255233,134.79196 C88.0077421,134.599127 87.9710591,134.36752 88.0234872,134.147729 L89.4183535,128.300131 C89.4927651,127.98818 89.3863983,127.660816 89.1428379,127.452181 L84.5772352,123.541256 C84.2185192,123.233978 84.1768208,122.694082 84.4840992,122.335366 C84.6310972,122.163761 84.8400332,122.057303 85.0652678,122.039246 L91.0577019,121.558836 C91.3773792,121.533207 91.6558512,121.330885 91.779011,121.034774 L94.0876727,115.484085 C94.2690625,115.047972 94.7696479,114.841478 95.2057614,115.022867 C95.4143923,115.109642 95.5802048,115.275454 95.6669793,115.484085 L97.9756411,121.034774 C98.0988008,121.330885 98.3772728,121.533207 98.6969501,121.558836 L104.689384,122.039246 C105.160205,122.076992 105.511283,122.489266 105.473537,122.960088 C105.45548,123.185322 105.349022,123.394258 105.177417,123.541256 L100.611814,127.452181 C100.368254,127.660816 100.261887,127.98818 100.336299,128.300131 L101.731165,134.147729 C101.840758,134.607171 101.557151,135.068465 101.097709,135.178058 C100.877918,135.230487 100.646311,135.193804 100.453479,135.076022 L95.3231195,131.942418 C95.0494311,131.775251 94.7052209,131.775251 94.4315325,131.942418 Z" id="Star" fill="#FFFFFF"></path>
            <path d="M78.3959281,153.768658 L73.2655687,156.902262 C72.8624802,157.148467 72.3361238,157.021287 72.0899189,156.618199 C71.9721377,156.425367 71.9354547,156.193759 71.9878828,155.973969 L73.3827491,150.12637 C73.4571607,149.814419 73.3507939,149.487056 73.1072335,149.27842 L68.5416308,145.367495 C68.1829148,145.060217 68.1412164,144.520322 68.4484948,144.161606 C68.5954928,143.990001 68.8044288,143.883543 69.0296634,143.865486 L75.0220975,143.385075 C75.3417748,143.359446 75.6202468,143.157125 75.7434066,142.861013 L78.0520683,137.310325 C78.2334581,136.874211 78.7340435,136.667717 79.170157,136.849107 C79.3787879,136.935881 79.5446004,137.101694 79.6313749,137.310325 L81.9400367,142.861013 C82.0631964,143.157125 82.3416684,143.359446 82.6613457,143.385075 L88.6537799,143.865486 C89.124601,143.903231 89.4756781,144.315506 89.4379326,144.786327 C89.4198756,145.011562 89.3134175,145.220497 89.1418124,145.367495 L84.5762097,149.27842 C84.3326493,149.487056 84.2262825,149.814419 84.3006942,150.12637 L85.6955604,155.973969 C85.805154,156.43341 85.5215463,156.894704 85.0621048,157.004298 C84.842314,157.056726 84.6107068,157.020043 84.4178745,156.902262 L79.2875151,153.768658 C79.0138267,153.60149 78.6696165,153.60149 78.3959281,153.768658 Z" id="Star-Copy-3" fill="#FFFFFF"></path>
            <path d="M109.57627,152.877791 L104.445911,156.011395 C104.042822,156.2576 103.516466,156.13042 103.270261,155.727332 C103.15248,155.5345 103.115797,155.302892 103.168225,155.083102 L104.563091,149.235503 C104.637503,148.923552 104.531136,148.596189 104.287575,148.387553 L99.7219727,144.476629 C99.3632566,144.16935 99.3215583,143.629455 99.6288367,143.270739 C99.7758347,143.099134 99.9847706,142.992676 100.210005,142.974619 L106.202439,142.494208 C106.522117,142.46858 106.800589,142.266258 106.923748,141.970146 L109.23241,136.419458 C109.4138,135.983344 109.914385,135.77685 110.350499,135.95824 C110.55913,136.045014 110.724942,136.210827 110.811717,136.419458 L113.120379,141.970146 C113.243538,142.266258 113.52201,142.46858 113.841688,142.494208 L119.834122,142.974619 C120.304943,143.012364 120.65602,143.424639 120.618274,143.89546 C120.600218,144.120695 120.493759,144.329631 120.322154,144.476629 L115.756552,148.387553 C115.512991,148.596189 115.406624,148.923552 115.481036,149.235503 L116.875902,155.083102 C116.985496,155.542543 116.701888,156.003837 116.242447,156.113431 C116.022656,156.165859 115.791049,156.129176 115.598216,156.011395 L110.467857,152.877791 C110.194169,152.710623 109.849958,152.710623 109.57627,152.877791 Z" id="Star-Copy-4" fill="#FFFFFF"></path>
        </g>
    </g>
</svg>