<?xml version="1.0" encoding="UTF-8"?>
<svg width="210px" height="205px" viewBox="0 0 210 205" version="1.1" xmlns="http://www.w3.org/2000/svg" xmlns:xlink="http://www.w3.org/1999/xlink">
    <!-- Generator: Sketch 64 (93537) - https://sketch.com -->
    <title>medal/gold</title>
    <desc>Created with Sketch.</desc>
    <defs>
        <linearGradient x1="71.0547062%" y1="14.9118466%" x2="26.4540303%" y2="100%" id="linearGradient-1">
            <stop stop-color="#832F98" offset="0%"></stop>
            <stop stop-color="#39136B" offset="100%"></stop>
        </linearGradient>
        <linearGradient x1="60.6102467%" y1="41.7819822%" x2="86.6638936%" y2="18.1253869%" id="linearGradient-2">
            <stop stop-color="#B4650F" offset="0%"></stop>
            <stop stop-color="#ED9F23" offset="100%"></stop>
        </linearGradient>
        <linearGradient x1="32.0433406%" y1="0%" x2="66.2405432%" y2="100%" id="linearGradient-3">
            <stop stop-color="#923C88" offset="0%"></stop>
            <stop stop-color="#7D2AA1" offset="100%"></stop>
        </linearGradient>
        <linearGradient x1="28.945603%" y1="8.98006053%" x2="75.1632887%" y2="91.3791125%" id="linearGradient-4">
            <stop stop-color="#FDDC3A" offset="0%"></stop>
            <stop stop-color="#FBDB3D" offset="100%"></stop>
        </linearGradient>
        <linearGradient x1="50%" y1="9.11059881%" x2="50%" y2="95.4172084%" id="linearGradient-5">
            <stop stop-color="#FFC42C" offset="1.11116976%"></stop>
            <stop stop-color="#FFC732" offset="100%"></stop>
        </linearGradient>
        <linearGradient x1="30.151139%" y1="6.73079111%" x2="74.4263286%" y2="86.5663491%" id="linearGradient-6">
            <stop stop-color="#FDDE48" offset="0%"></stop>
            <stop stop-color="#FBDB3D" offset="100%"></stop>
        </linearGradient>
        <linearGradient x1="59.1592568%" y1="22.2178144%" x2="34.93491%" y2="85.9255761%" id="linearGradient-7">
            <stop stop-color="#27C87A" offset="0%"></stop>
            <stop stop-color="#23776E" offset="100%"></stop>
        </linearGradient>
        <linearGradient x1="59.4050917%" y1="21.5712917%" x2="34.29945%" y2="87.5967765%" id="linearGradient-8">
            <stop stop-color="#27C87A" offset="0.979201858%"></stop>
            <stop stop-color="#23776E" offset="97.4688556%"></stop>
        </linearGradient>
        <linearGradient x1="50%" y1="25.4663402%" x2="50%" y2="95.4172084%" id="linearGradient-9">
            <stop stop-color="#FFC42C" offset="0%"></stop>
            <stop stop-color="#FFC12F" offset="100%"></stop>
        </linearGradient>
        <path d="M98.8152551,127.492194 C91.687522,126.384184 84.4368969,125.153061 77.3091638,124.045051 C74.6055409,123.552602 73.1308375,127.122858 75.3428926,128.723317 L88.2465474,138.079849 L83.2079774,143.866126 L77.1862718,142.142554 C74.4826489,141.403881 72.7621616,144.974136 75.0971087,146.697708 L80.0127867,150.021739 C79.152543,151.991536 78.6609752,153.345771 78.6609752,153.345771 C78.4151913,153.961332 79.0296511,154.576893 79.6441108,154.330669 C79.6441108,154.330669 80.9959223,153.83822 82.9621935,152.976434 L86.2802762,157.900924 C88.0007635,160.240058 91.56463,158.516486 90.8272783,155.808016 L89.106791,149.775515 L94.8827127,144.727912 L104.222501,157.6547 C105.820096,159.870721 109.383963,158.393374 108.892395,155.684904 C107.786367,148.544392 106.557448,141.280768 105.45142,134.140257 C120.56713,118.874336 113.930965,112.59561 98.8152551,127.492194 Z" id="path-10"></path>
        <filter x="-15.0%" y="-15.0%" width="130.0%" height="130.0%" filterUnits="objectBoundingBox" id="filter-11">
            <feOffset dx="0" dy="0" in="SourceAlpha" result="shadowOffsetOuter1"></feOffset>
            <feGaussianBlur stdDeviation="2" in="shadowOffsetOuter1" result="shadowBlurOuter1"></feGaussianBlur>
            <feColorMatrix values="0 0 0 0 0.843137255   0 0 0 0 0.533333333   0 0 0 0 0.105882353  0 0 0 0.2 0" type="matrix" in="shadowBlurOuter1"></feColorMatrix>
        </filter>
    </defs>
    <g id="Symbols" stroke="none" stroke-width="1" fill="none" fill-rule="evenodd">
        <g id="Group-2-Copy" transform="translate(10.000000, 5.000000)">
            <polygon id="Path-4" fill="#4F1B78" points="151.958707 0 159.115868 25 29.2697929 25 37.1774158 0 80.701325 0 78.1633272 25 111.110147 25 107.331095 0"></polygon>
            <path d="M107.331095,0 L151.94258,0 C138.066968,40.1197411 130.63172,61.8983214 129.636838,65.3357406 C128.144514,70.4918696 124.183739,80.2559984 115.757417,80.2559984 C110.139869,80.2559984 98.4545048,80.2559984 80.701325,80.2559984 L107.331095,0 Z" id="Path-3" fill="url(#linearGradient-1)"></path>
            <path d="M115.199998,69.1199986 L72.9599986,69.1199986 C63.4165183,69.1199986 55.6799989,76.856518 55.6799989,86.3999983 L55.6799989,117.119999 C55.6799989,126.663478 63.4165183,134.399997 72.9599986,134.399997 L115.199998,134.399997 C124.743478,134.399997 132.479997,126.663478 132.479997,117.119999 L132.479997,86.3999983 C132.479997,76.856518 124.743478,69.1199986 115.199998,69.1199986 Z M115.199998,78.7199984 C119.441545,78.7199984 122.879998,82.1584515 122.879998,86.3999983 L122.879998,117.119998 C122.879998,121.361544 119.441545,124.799998 115.199998,124.799998 L72.9599986,124.799998 C68.7184518,124.799998 65.2799987,121.361544 65.2799987,117.119998 L65.2799987,86.3999983 C65.2799987,82.1584515 68.7184518,78.7199984 72.9599986,78.7199984 L115.199998,78.7199984 Z" id="Rectangle" fill="url(#linearGradient-2)" fill-rule="nonzero"></path>
            <path d="M110.808096,80.2559984 C107.358138,80.2559984 97.3650732,53.5039989 80.8289016,-3.95630187e-13 L37.1396122,-3.95630187e-13 C50.1935474,40.22602 57.5070956,62.1666647 59.0802569,65.8219342 C61.4399988,71.3048384 65.7333036,80.2559984 75.5222067,80.2559984 C85.3111097,80.2559984 99.0750948,80.2559984 110.808096,80.2559984 Z" id="Path" fill="url(#linearGradient-3)" fill-rule="nonzero"></path>
            <path d="M94.0799981,87.3599983 C66.0255495,87.3599983 43.1999991,110.185549 43.1999991,138.239997 C43.1999991,166.294446 66.0255495,189.119996 94.0799981,189.119996 C122.134447,189.119996 144.959997,166.294446 144.959997,138.239997 C144.959997,110.185549 122.134447,87.3599983 94.0799981,87.3599983 Z" id="Shape" fill="url(#linearGradient-4)" fill-rule="nonzero"></path>
            <path d="M94.0799981,97.9199981 C71.8481709,97.9199981 53.7599989,116.00817 53.7599989,138.239997 C53.7599989,160.471825 71.8481709,178.559996 94.0799981,178.559996 C116.311825,178.559996 134.399997,160.471825 134.399997,138.239997 C134.399997,116.00817 116.311825,97.9199981 94.0799981,97.9199981 Z" id="Shape" fill="url(#linearGradient-5)" fill-rule="nonzero"></path>
            <path d="M94.0799981,97.9199981 C116.311825,97.9199981 134.399997,116.00817 134.399997,138.239997 C134.399997,138.40223 134.399034,138.564241 134.397113,138.726027 L134.399997,139.199997 C134.399997,117.497499 116.742496,99.839998 95.0399981,99.839998 C73.3375001,99.839998 55.6799989,117.497499 55.6799989,139.199997 C55.6799989,160.74399 73.0805173,178.301856 94.5651353,178.557176 L94.0799981,178.559996 C71.8481709,178.559996 53.7599989,160.471825 53.7599989,138.239997 C53.7599989,116.00817 71.8481709,97.9199981 94.0799981,97.9199981 Z" id="Combined-Shape" fill="#FEA445" fill-rule="nonzero"></path>
            <path d="M94.0799981,105.599998 C76.0813699,105.599998 61.4399988,120.246032 61.4399988,138.239997 C61.4399988,156.233963 76.0813699,170.879997 94.0799981,170.879997 C112.078626,170.879997 126.719997,156.233963 126.719997,138.239997 C126.719997,120.246032 112.078626,105.599998 94.0799981,105.599998 Z" id="Shape" fill="url(#linearGradient-6)" fill-rule="nonzero"></path>
            <path d="M94.0391903,149.651287 L84.8726524,155.250173 C83.9677169,155.802904 82.7860446,155.517386 82.2333135,154.612451 C81.9688942,154.179542 81.8865408,153.659582 82.0042421,153.166151 L84.4964835,142.718105 C84.663538,142.017774 84.424744,141.282842 83.8779499,140.814454 L75.720477,133.82671 C74.915158,133.136869 74.8215449,131.924802 75.5113864,131.119483 C75.8413975,130.734229 76.3104595,130.49523 76.8161122,130.454692 L87.5229395,129.59633 C88.2406163,129.538794 88.8657871,129.084581 89.1422813,128.41981 L93.2672234,118.50226 C93.6744444,117.523183 94.7982607,117.059603 95.7773373,117.466824 C96.2457146,117.661633 96.6179644,118.033883 96.8127735,118.50226 L100.937715,128.41981 C101.214209,129.084581 101.83938,129.538794 102.557057,129.59633 L113.263884,130.454692 C114.320879,130.539431 115.109049,131.464989 115.02431,132.521985 C114.983772,133.027637 114.744773,133.496699 114.359519,133.82671 L106.202046,140.814454 C105.655252,141.282842 105.416458,142.017774 105.583513,142.718105 L108.075754,153.166151 C108.321792,154.197599 107.685092,155.233206 106.653643,155.479244 C106.160212,155.596946 105.640253,155.514592 105.207344,155.250173 L96.0408069,149.651287 C95.4263753,149.275994 94.6536218,149.275994 94.0391903,149.651287 Z" id="Star" fill="#FFFFFF"></path>
            <path d="M189.119996,124.827868 L189.119996,109.343998 L186.023222,109.343998 C183.768771,109.343998 181.594835,109.690837 179.547867,110.334966 C179.842061,106.185288 178.95019,102.004643 176.866061,98.2513529 L168.597674,83.3620629 L165.850835,85.0095467 C156.845416,90.4134176 153.147868,101.171611 156.4769,110.749933 C154.104771,109.854966 151.546836,109.343998 148.865029,109.343998 L145.768255,109.343998 L145.768255,124.827868 C145.768255,125.502965 145.879739,126.168772 145.944771,126.843868 L144.990965,128.751481 C139.997417,139.199997 129.327481,157.348446 129.327481,175.553029 C130.553804,178.19148 132.198191,180.656513 134.347352,182.824254 C139.209288,187.652125 145.582449,190.064512 151.958707,190.064512 C158.359739,190.064512 164.766964,187.627351 169.631997,182.762319 L178.014964,174.379351 L175.825545,172.189932 C173.921029,170.285416 171.781158,168.767997 169.501932,167.606706 C170.136771,167.355868 170.77161,167.101932 171.390964,166.792255 C176.810319,164.082577 180.851609,159.425029 182.765416,153.680513 L186.84077,141.451352 L183.901932,140.475868 C183.524125,140.3489 183.140125,140.262191 182.756125,140.153804 C186.689029,136.223997 189.119996,130.804643 189.119996,124.827868 Z M182.926448,124.827868 C182.926448,132.306578 177.5969,138.562062 170.539351,139.998965 L170.539351,131.021417 C170.539351,123.542707 175.8689,117.287223 182.926448,115.85032 L182.926448,124.827868 Z M166.448513,92.2529014 L171.449803,101.255224 C173.6609,105.237675 173.995351,109.892127 172.443868,114.147095 C170.632255,115.605675 169.068384,117.352256 167.8049,119.312514 C167.578835,118.844901 167.389932,118.364901 167.139093,117.909675 L163.432255,111.239224 C159.867868,104.819611 161.264513,97.0343207 166.448513,92.2529014 Z M151.958707,115.847224 C159.016255,117.287223 164.345803,123.53961 164.345803,131.01832 L164.345803,142.999739 C163.97419,143.241287 163.618061,143.495223 163.261932,143.758449 C162.431997,136.685417 158.465029,130.114062 152.076384,126.187352 C152.036126,125.732127 151.958707,125.283094 151.958707,124.827868 L151.958707,115.847224 Z M155.213416,154.813932 L151.559223,165.776513 C151.435352,165.810577 151.305287,165.832255 151.181416,165.869416 C151.828642,163.630448 152.175481,161.289287 152.175481,158.892384 C152.175481,153.150965 150.239997,147.706836 146.697287,143.293933 C146.715868,140.605933 147.319739,137.93032 148.533674,135.505546 L150.12232,132.325159 C156.346836,136.954836 158.799481,145.213933 156.10219,152.571868 C155.773932,153.296513 155.470449,154.042836 155.213416,154.813932 Z M145.985029,158.892384 C145.985029,163.915352 144.030965,168.634835 140.441804,172.227093 L136.725675,176.076384 C135.511739,174.394835 134.610578,172.51819 134.009804,170.530061 C138.685933,164.763868 142.126449,157.978836 144.037158,150.580642 C145.300642,153.135481 145.985029,155.959739 145.985029,158.892384 Z M165.253158,178.380384 C158.728255,184.908383 148.555352,185.577287 141.157158,180.39948 L144.857804,176.568771 C151.441545,169.985029 161.735223,169.316126 169.074577,174.562061 L165.253158,178.380384 Z M176.890835,151.717158 C174.35148,159.341416 166.717932,163.87819 159.065803,162.850061 L161.060126,156.867094 C161.385287,156.191997 161.685674,155.510707 161.942706,154.823223 C165.048771,148.409804 171.95148,144.706062 178.919222,145.641287 L176.890835,151.717158 Z" id="Shape" fill="url(#linearGradient-7)" fill-rule="nonzero"></path>
            <path d="M59.7925149,124.827868 L59.7925149,109.343998 L56.6957408,109.343998 C54.4412892,109.343998 52.2673538,109.690837 50.2203861,110.334966 C50.5145796,106.185288 49.6227087,102.004643 47.5385797,98.2513529 L39.2701928,83.3620629 L36.5233541,85.0095467 C27.5179349,90.4134176 23.8203866,101.171611 27.1494188,110.749933 C24.7772898,109.854966 22.2193544,109.343998 19.537548,109.343998 L16.4407739,109.343998 L16.4407739,124.827868 C16.4407739,125.502965 16.5522577,126.168772 16.61729,126.843868 L15.6634836,128.751481 C10.6699353,139.199997 1.65556457e-12,157.348446 1.65556457e-12,175.553029 C1.22632256,178.19148 2.87070962,180.656513 5.01987087,182.824254 C9.88180626,187.652125 16.2549674,190.064512 22.6312254,190.064512 C29.0322575,190.064512 35.4394832,187.627351 40.3045153,182.762319 L48.6874829,174.379351 L46.4980636,172.189932 C44.5935475,170.285416 42.4536766,168.767997 40.1744508,167.606706 C40.8092895,167.355868 41.4441282,167.101932 42.063483,166.792255 C47.4828378,164.082577 51.524128,159.425029 53.4379344,153.680513 L57.5132892,141.451352 L54.5744505,140.475868 C54.1966441,140.3489 53.8126441,140.262191 53.4286441,140.153804 C57.3615472,136.223997 59.7925149,130.804643 59.7925149,124.827868 Z M53.5989667,124.827868 C53.5989667,132.306578 48.2694184,138.562062 41.2118701,139.998965 L41.2118701,131.021417 C41.2118701,123.542707 46.5414184,117.287223 53.5989667,115.85032 L53.5989667,124.827868 Z M37.1210315,92.2529014 L42.1223217,101.255224 C44.3334185,105.237675 44.6678701,109.892127 43.1163862,114.147095 C41.3047734,115.605675 39.7409024,117.352256 38.4774186,119.312514 C38.2513541,118.844901 38.0624509,118.364901 37.8116122,117.909675 L34.1047735,111.239224 C30.5403865,104.819611 31.9370316,97.0343207 37.1210315,92.2529014 Z M22.6312254,115.847224 C29.6887736,117.287223 35.0183219,123.53961 35.0183219,131.01832 L35.0183219,142.999739 C34.646709,143.241287 34.29058,143.495223 33.9344509,143.758449 C33.1045155,136.685417 29.1375478,130.114062 22.7489028,126.187352 C22.7086447,125.732127 22.6312254,125.283094 22.6312254,124.827868 L22.6312254,115.847224 Z M25.885935,154.813932 L22.2317415,165.776513 C22.1078705,165.810577 21.977806,165.832255 21.853935,165.869416 C22.5011608,163.630448 22.8479995,161.289287 22.8479995,158.892384 C22.8479995,153.150965 20.9125157,147.706836 17.3698061,143.293933 C17.3883868,140.605933 17.9922577,137.93032 19.2061932,135.505546 L20.7948383,132.325159 C27.0193543,136.954836 29.4719994,145.213933 26.7747091,152.571868 C26.4464511,153.296513 26.1429672,154.042836 25.885935,154.813932 Z M16.6575481,158.892384 C16.6575481,163.915352 14.7034836,168.634835 11.1143224,172.227093 L7.3981934,176.076384 C6.18425794,174.394835 5.28309667,172.51819 4.68232249,170.530061 C9.35845143,164.763868 12.7989675,157.978836 14.7096771,150.580642 C15.973161,153.135481 16.6575481,155.959739 16.6575481,158.892384 Z M35.9256767,178.380384 C29.4007736,184.908383 19.2278706,185.577287 11.8296772,180.39948 L15.5303223,176.568771 C22.1140641,169.985029 32.4077413,169.316126 39.747096,174.562061 L35.9256767,178.380384 Z M47.5633539,151.717158 C45.0239991,159.341416 37.3904509,163.87819 29.738322,162.850061 L31.7326445,156.867094 C32.0578058,156.191997 32.3581929,155.510707 32.6152252,154.823223 C35.7212896,148.409804 42.6239992,144.706062 49.591741,145.641287 L47.5633539,151.717158 Z" id="Shape-Copy-2" fill="url(#linearGradient-8)" fill-rule="nonzero" transform="translate(29.896257, 136.713288) scale(-1, 1) translate(-29.896257, -136.713288) "></path>
            <path d="M94.0799981,87.3599983 C66.0255495,87.3599983 43.1999991,110.185549 43.1999991,138.239997 C43.1999991,166.294446 66.0255495,189.119996 94.0799981,189.119996 C122.134447,189.119996 144.959997,166.294446 144.959997,138.239997 C144.959997,110.185549 122.134447,87.3599983 94.0799981,87.3599983 Z" id="Shape" fill="url(#linearGradient-4)" fill-rule="nonzero"></path>
            <path d="M94.0799981,97.9199981 C71.8481709,97.9199981 53.7599989,116.00817 53.7599989,138.239997 C53.7599989,160.471825 71.8481709,178.559996 94.0799981,178.559996 C116.311825,178.559996 134.399997,160.471825 134.399997,138.239997 C134.399997,116.00817 116.311825,97.9199981 94.0799981,97.9199981 Z" id="Shape" fill="url(#linearGradient-9)" fill-rule="nonzero"></path>
            <path d="M94.0799981,97.9199981 C113.382267,97.9199981 129.560975,111.555185 133.489646,129.699083 C129.175754,112.563507 113.635233,99.839998 95.1799989,99.839998 C73.4003066,99.839998 55.6799989,117.560306 55.6799989,139.339998 C55.6799989,157.795232 68.403508,173.335753 85.5389477,177.649982 C67.3951857,173.720974 53.7599989,157.542266 53.7599989,138.239997 C53.7599989,116.00817 71.8481709,97.9199981 94.0799981,97.9199981 Z" id="Combined-Shape" fill="#FEA445" fill-rule="nonzero"></path>
            <path d="M93.6399994,106 C75.6413711,106 61,120.646034 61,138.639999 C61,156.633965 75.6413711,171.279999 93.6399994,171.279999 C111.638628,171.279999 126.279999,156.633965 126.279999,138.639999 C126.279999,120.646034 111.638628,106 93.6399994,106 Z" id="Shape" fill="url(#linearGradient-6)" fill-rule="nonzero"></path>
            <g id="Path">
                <use fill="black" fill-opacity="1" filter="url(#filter-11)" xlink:href="#path-10"></use>
                <use fill="#FFFFFF" fill-rule="evenodd" xlink:href="#path-10"></use>
            </g>
        </g>
    </g>
</svg>