<?xml version="1.0" encoding="UTF-8"?>
<svg width="210px" height="205px" viewBox="0 0 210 205" version="1.1" xmlns="http://www.w3.org/2000/svg" xmlns:xlink="http://www.w3.org/1999/xlink">
    <!-- Generator: Sketch 64 (93537) - https://sketch.com -->
    <title>medal/silver</title>
    <desc>Created with Sketch.</desc>
    <defs>
        <linearGradient x1="70.8796819%" y1="14.9118466%" x2="26.6497641%" y2="100%" id="linearGradient-1">
            <stop stop-color="#832F98" offset="0%"></stop>
            <stop stop-color="#39136B" offset="100%"></stop>
        </linearGradient>
        <linearGradient x1="66.52858%" y1="34.9116967%" x2="73.2382788%" y2="13.8995623%" id="linearGradient-2">
            <stop stop-color="#749EDC" offset="0%"></stop>
            <stop stop-color="#C5D6F0" offset="100%"></stop>
        </linearGradient>
        <linearGradient x1="32.0743005%" y1="0%" x2="66.2125422%" y2="100%" id="linearGradient-3">
            <stop stop-color="#923C88" offset="0%"></stop>
            <stop stop-color="#7D2AA1" offset="100%"></stop>
        </linearGradient>
        <linearGradient x1="28.945603%" y1="8.98006053%" x2="75.1632887%" y2="91.3791125%" id="linearGradient-4">
            <stop stop-color="#FDDC3A" offset="0%"></stop>
            <stop stop-color="#FBDB3D" offset="100%"></stop>
        </linearGradient>
        <linearGradient x1="50%" y1="9.11059881%" x2="50%" y2="95.4172084%" id="linearGradient-5">
            <stop stop-color="#FFC42C" offset="1.11116976%"></stop>
            <stop stop-color="#FFC732" offset="100%"></stop>
        </linearGradient>
        <linearGradient x1="30.151139%" y1="6.73079111%" x2="74.4263286%" y2="86.5663491%" id="linearGradient-6">
            <stop stop-color="#FDDE48" offset="0%"></stop>
            <stop stop-color="#FBDB3D" offset="100%"></stop>
        </linearGradient>
        <linearGradient x1="66.6490534%" y1="22.2429695%" x2="33.4638372%" y2="88.3511787%" id="linearGradient-7">
            <stop stop-color="#4BC4E5" offset="0%"></stop>
            <stop stop-color="#0E5D7E" offset="100%"></stop>
        </linearGradient>
        <linearGradient x1="28.945603%" y1="8.98006053%" x2="73.475016%" y2="88.3691809%" id="linearGradient-8">
            <stop stop-color="#DDE3E9" offset="0%"></stop>
            <stop stop-color="#ABBBCA" offset="100%"></stop>
        </linearGradient>
        <linearGradient x1="32.4741165%" y1="13.1041165%" x2="72.8461653%" y2="92.9060615%" id="linearGradient-9">
            <stop stop-color="#BCCBDE" offset="0%"></stop>
            <stop stop-color="#8FA1B6" offset="100%"></stop>
        </linearGradient>
        <linearGradient x1="30.151139%" y1="6.73079111%" x2="74.4263286%" y2="86.5663491%" id="linearGradient-10">
            <stop stop-color="#DEE4EA" offset="0%"></stop>
            <stop stop-color="#BDD2E6" offset="100%"></stop>
        </linearGradient>
    </defs>
    <g id="Symbols" stroke="none" stroke-width="1" fill="none" fill-rule="evenodd">
        <g id="Group-17-Copy-2" transform="translate(-3.000000, 6.000000)">
            <polygon id="Path-4" fill="#4F1B78" points="165.735492 0 172.888889 16 43.1111111 16 51.0145747 0 94.5155909 0 91.978928 16 124.908419 16 121.131354 0"></polygon>
            <path d="M121.247789,0 L165.777778,0 C151.927513,40.2139448 144.505848,62.0436624 143.512783,65.489153 C142.023186,70.6573888 138.069647,80.4444444 129.658718,80.4444444 C124.051432,80.4444444 112.387415,80.4444444 94.6666667,80.4444444 L121.247789,0 Z" id="Path-3" fill="url(#linearGradient-1)"></path>
            <path d="M129.366667,68.8888889 L87.0777778,68.8888889 C77.5232516,68.8888889 69.7777778,76.6317291 69.7777778,86.1830065 L69.7777778,116.928105 C69.7777778,126.479382 77.5232516,134.222222 87.0777778,134.222222 L129.366667,134.222222 C138.921193,134.222222 146.666667,126.479382 146.666667,116.928105 L146.666667,86.1830065 C146.666667,76.6317291 138.921193,68.8888889 129.366667,68.8888889 Z M129.366667,78.496732 C133.613123,78.496732 137.055556,81.9379943 137.055556,86.1830065 L137.055556,116.928105 C137.055556,121.173117 133.613123,124.614379 129.366667,124.614379 L87.0777778,124.614379 C82.8313217,124.614379 79.3888889,121.173117 79.3888889,116.928105 L79.3888889,86.1830065 C79.3888889,81.9379943 82.8313217,78.496732 87.0777778,78.496732 L129.366667,78.496732 Z" id="Rectangle" fill="url(#linearGradient-2)" fill-rule="nonzero"></path>
            <path d="M124.888889,80.4444444 C121.433813,80.4444444 111.425922,53.6296296 94.8652177,0 L51.1111111,0 C64.1844131,40.3204732 71.5088116,62.3126359 73.0843068,65.9764881 C75.4475496,71.4722665 79.747224,80.4444444 89.5506498,80.4444444 C99.3540756,80.4444444 113.138481,80.4444444 124.888889,80.4444444 Z" id="Path" fill="url(#linearGradient-3)" fill-rule="nonzero"></path>
            <path d="M108.222222,87.5555556 C80.1628718,87.5555556 57.3333333,110.385094 57.3333333,138.444444 C57.3333333,166.503795 80.1628718,189.333333 108.222222,189.333333 C136.281573,189.333333 159.111111,166.503795 159.111111,138.444444 C159.111111,110.385094 136.281573,87.5555556 108.222222,87.5555556 Z" id="Shape" fill="url(#linearGradient-4)" fill-rule="nonzero"></path>
            <path d="M108.222222,98.2222222 C86.0443077,98.2222222 68,116.26653 68,138.444444 C68,160.622359 86.0443077,178.666667 108.222222,178.666667 C130.400137,178.666667 148.444444,160.622359 148.444444,138.444444 C148.444444,116.26653 130.400137,98.2222222 108.222222,98.2222222 Z" id="Shape" fill="url(#linearGradient-5)" fill-rule="nonzero"></path>
            <path d="M108.222222,98.2222222 C130.400137,98.2222222 148.444444,116.26653 148.444444,138.444444 C148.444444,138.606103 148.443486,138.767541 148.441574,138.928755 L148.444444,139.402116 C148.444444,117.752247 130.829763,100.137566 109.179894,100.137566 C87.5300252,100.137566 69.9153439,117.752247 69.9153439,139.402116 C69.9153439,160.893955 87.2738112,178.409299 108.706452,178.663856 L108.222222,178.666667 C86.0443077,178.666667 68,160.622359 68,138.444444 C68,116.26653 86.0443077,98.2222222 108.222222,98.2222222 Z" id="Combined-Shape" fill="#FEA445" fill-rule="nonzero"></path>
            <path d="M108.222222,105.777778 C90.2088889,105.777778 75.5555556,120.435778 75.5555556,138.444444 C75.5555556,156.453111 90.2088889,171.111111 108.222222,171.111111 C126.235556,171.111111 140.888889,156.453111 140.888889,138.444444 C140.888889,120.435778 126.235556,105.777778 108.222222,105.777778 Z" id="Shape" fill="url(#linearGradient-6)" fill-rule="nonzero"></path>
            <path d="M108.444085,149.293907 L96.5329318,156.569194 C96.1307382,156.814852 95.6055505,156.687955 95.3598923,156.285762 C95.2423726,156.093358 95.205771,155.862265 95.2580828,155.642962 L98.4965432,142.066594 C98.5707897,141.755336 98.464659,141.4287 98.2216394,141.220527 L87.6216813,132.140535 C87.2637617,131.833938 87.2221559,131.295242 87.5287521,130.937322 C87.6754237,130.766098 87.8838958,130.659877 88.1086303,130.64186 L102.021262,129.52649 C102.34023,129.500919 102.618084,129.299046 102.74097,129.003592 L108.100989,116.116561 C108.281976,115.681416 108.78145,115.47538 109.216595,115.656367 C109.424763,115.742949 109.590207,115.908393 109.676789,116.116561 L115.036808,129.003592 C115.159694,129.299046 115.437548,129.500919 115.756515,129.52649 L129.669147,130.64186 C130.138923,130.679522 130.489221,131.090881 130.451559,131.560657 C130.433542,131.785391 130.32732,131.993863 130.156096,132.140535 L119.556138,141.220527 C119.313119,141.4287 119.206988,141.755336 119.281235,142.066594 L122.519695,155.642962 C122.629045,156.101383 122.346067,156.561653 121.887646,156.671003 C121.668343,156.723315 121.43725,156.686713 121.244846,156.569194 L109.333693,149.293907 C109.060612,149.12711 108.717166,149.12711 108.444085,149.293907 Z" id="Star" fill="#FFFFFF"></path>
            <path d="M175.132913,95.0433123 C181.648808,84.7149543 196.793979,86.9749493 198.889228,99.1165834 C199.89173,104.925919 199.115982,108.943254 195.982561,114.837263 L195.730277,115.306545 L195.476,115.765 L195.738791,115.779927 C204.05349,116.350466 210.608008,124.12976 207.81896,131.999275 L207.721397,132.264563 L207.619045,132.524093 C205.59349,137.493019 201.879431,142.287669 196.474876,146.940626 L195.927,147.407 L196.005751,147.459899 C196.850311,148.061477 197.632574,148.793885 198.347118,149.654362 L198.64919,150.030971 L198.91066,150.378861 C204.918406,158.61901 198.779905,168.912186 185.28196,175.025203 L184.716,175.277 L184.95876,175.534998 C185.964752,176.645641 186.708815,177.961725 187.162723,179.44519 L187.270139,179.819521 L187.365368,180.200695 C189.020919,187.345823 183.390062,193.962377 174.518295,195.083423 C164.640201,196.331628 157.367393,194.798621 150.93219,190.215743 L150.561845,189.94796 L150.195558,189.674922 L148.414,188.263 L148.34158,188.335417 L147.988243,187.95146 L147.932466,187.882083 L147.364408,187.429573 L147.453,187.358 L147.192697,187.047531 C143.233537,182.235393 140.699408,174.297531 140.511258,166.399565 L140.5022,165.873128 L140.500124,165.358206 C140.526176,155.165136 144.458464,148.179047 151.432692,147.12397 C151.755101,147.075195 152.072955,147.038279 152.386182,147.01319 L152.852546,146.984422 L153.076,146.98 L153.04724,146.877178 C150.98693,139.568683 152.602765,134.380126 158.293803,131.711816 L158.586692,131.578313 L158.886617,131.449166 L159.274,131.296 L159.160489,131.150034 C153.408007,123.803334 152.042635,116.927478 155.717251,112.475563 L155.896044,112.265407 L156.082473,112.058962 C160.155604,107.679196 165.890423,107.584452 171.713685,111.074973 L172.103,111.315 L172.100123,111.274016 C171.716017,105.289789 172.612152,99.554517 174.733071,95.7202955 L174.935493,95.3664572 L175.132913,95.0433123 Z M169.035129,178.344358 C164.453751,179.780459 162.128902,181.214045 158.777681,184.64421 L158.460397,184.971699 L157.062089,186.441538 L156.548,186.974 L156.891804,187.159962 C161.091991,189.382513 165.868515,190.151099 172.139322,189.560194 L172.713538,189.502733 L173.27859,189.439858 L173.80052,189.376405 C179.368753,188.672798 182.627398,185.179022 181.775417,181.50199 C180.882309,177.647462 175.974764,176.169026 169.035129,178.344358 Z M152.430501,153.751546 C145.587736,154.786734 145.365007,174.208532 152.200821,182.608606 L152.469,182.927 L154.311491,180.997622 C155.556181,179.702279 156.649394,178.669272 157.723022,177.786951 L157.878,177.662 L157.955833,177.210786 C158.881255,171.640436 159.006497,165.526363 158.237324,161.03521 L158.148175,160.542982 C157.158166,155.367594 155.354931,153.309131 152.430501,153.751546 Z M161.462209,137.634587 C158.641713,138.814714 158.16237,141.204304 159.838536,146.212855 C160.174794,147.217626 160.587628,148.281094 161.125363,149.530575 L161.332963,150.008099 L161.950865,151.382938 L163.425136,154.57331 L163.372,154.597 L163.555514,155.066743 C163.975156,156.181761 164.323934,157.399642 164.600772,158.712352 L164.715009,159.280724 C165.46102,163.180587 165.617343,168.027125 165.208894,172.983551 L165.155,173.594 L165.309592,173.535492 C165.781458,173.362303 166.275205,173.191919 166.794418,173.022938 L167.322254,172.854372 L167.711,172.736 L167.720688,172.640738 C168.350827,166.298498 169.402635,161.400015 170.920634,157.825502 L171.079333,157.460442 L171.342023,156.6697 C171.726102,155.47421 171.85224,154.855408 171.881579,154.282677 C172.386724,144.421798 166.495174,135.528739 161.462209,137.634587 Z M179.103057,157.248944 C177.13084,158.99091 175.553801,163.719368 174.639203,170.95791 L174.568,171.538 L176.376347,171.160001 C176.507574,171.12989 176.60319,171.105869 176.669335,171.086413 C189.713632,167.24956 197.132814,159.299703 193.512251,154.333783 C190.792664,150.603631 185.299563,151.775862 179.103057,157.248944 Z M160.973335,116.629408 C158.545508,119.240007 162.778766,127.007623 171.874259,134.474627 C172.177631,134.738961 172.694547,135.406932 173.460674,136.509209 C175.886542,139.763257 177.580383,144.034605 178.261008,148.615032 L178.313,148.988 L178.376717,148.89641 C179.640537,147.019902 179.966543,145.117229 179.987193,141.454413 L179.987161,139.208136 L180.006375,137.296627 L180.021907,136.470159 L180.009087,136.122632 C180.004552,136.045978 179.999443,135.994598 179.994533,135.973745 C178.250588,128.567825 175.520937,123.104315 171.850713,119.591672 C167.923142,115.832731 162.846141,114.615612 160.973335,116.629408 Z M190.304929,124.9382 C188.540462,127.621852 187.573254,129.827699 187.109158,132.183831 L187.040018,132.557192 L186.984313,132.897789 C186.869268,133.646908 186.800494,134.322845 186.756328,135.175626 L186.741,135.488 L186.841246,135.934665 L186.723,135.975 L186.701539,136.840002 L186.687591,137.739347 L186.667402,139.840117 C186.642395,141.997336 186.59245,143.586062 186.494493,145.069912 L186.446,145.742 L186.608434,145.687914 C187.221813,145.48388 187.701676,145.295237 187.910119,145.170625 L187.964371,145.13521 C194.885902,140.091967 199.378968,135.018659 201.429399,129.988711 C203.753007,124.288625 193.914255,119.448623 190.304929,124.9382 Z M180.784161,98.6257859 C177.855871,103.267425 177.748695,114.16031 180.19716,119.170787 C181.136449,120.539958 181.999108,122.033504 182.785858,123.651191 L183.008,124.121 L183.258742,123.6595 C183.605513,123.033396 183.986019,122.395921 184.402664,121.742675 L184.721963,121.249714 C185.005041,120.819168 185.305136,120.412793 185.621546,120.030826 L185.899,119.709 L186.591215,118.432483 C187.018709,117.40972 187.487098,116.440291 188.17427,115.15673 L188.571857,114.423243 L189.637195,112.503719 C192.456192,107.408818 193.067753,104.704567 192.300605,100.259065 C191.278526,94.3362836 184.09951,93.3706207 180.784161,98.6257859 Z" id="Combined-Shape-Copy-5" fill="url(#linearGradient-7)" fill-rule="nonzero" transform="translate(174.485653, 141.993934) rotate(8.000000) translate(-174.485653, -141.993934) "></path>
            <path d="M42.6327888,95.0433123 C49.1486843,84.7149543 64.2938545,86.9749493 66.3891039,99.1165834 C67.3916055,104.925919 66.6158583,108.943254 63.482437,114.837263 L63.2301529,115.306545 L62.975876,115.765 L63.2386669,115.779927 C71.5533661,116.350466 78.1078838,124.12976 75.3188356,131.999275 L75.2212732,132.264563 L75.1189213,132.524093 C73.0933656,137.493019 69.3793073,142.287669 63.9747518,146.940626 L63.426876,147.407 L63.505627,147.459899 C64.3501866,148.061477 65.1324495,148.793885 65.8469943,149.654362 L66.149066,150.030971 L66.4105363,150.378861 C72.4182822,158.61901 66.279781,168.912186 52.7818355,175.025203 L52.215876,175.277 L52.4586364,175.534998 C53.4646282,176.645641 54.2086907,177.961725 54.6625994,179.44519 L54.7700154,179.819521 L54.8652436,180.200695 C56.5207953,187.345823 50.8899377,193.962377 42.0181707,195.083423 C32.1400774,196.331628 24.8672689,194.798621 18.4320662,190.215743 L18.0617212,189.94796 L17.6954336,189.674922 L15.913876,188.263 L15.841456,188.335417 L15.4881186,187.95146 L15.4323415,187.882083 L14.8642837,187.429573 L14.952876,187.358 L14.692573,187.047531 C10.7334125,182.235393 8.1992839,174.297531 8.01113364,166.399565 L8.00207592,165.873128 L8,165.358206 C8.02605168,155.165136 11.9583401,148.179047 18.9325677,147.12397 C19.2549774,147.075195 19.5728307,147.038279 19.8860584,147.01319 L20.3524222,146.984422 L20.575876,146.98 L20.547116,146.877178 C18.4868056,139.568683 20.1026408,134.380126 25.7936793,131.711816 L26.0865681,131.578313 L26.3864929,131.449166 L26.773876,131.296 L26.6603653,131.150034 C20.9078832,123.803334 19.5425113,116.927478 23.2171265,112.475563 L23.3959203,112.265407 L23.5823488,112.058962 C27.6554803,107.679196 33.3902992,107.584452 39.2135606,111.074973 L39.602876,111.315 L39.5999992,111.274016 C39.2158932,105.289789 40.1120283,99.554517 42.2329467,95.7202955 L42.4353693,95.3664572 L42.6327888,95.0433123 Z M36.5350052,178.344358 C31.9536267,179.780459 29.6287782,181.214045 26.277557,184.64421 L25.9602729,184.971699 L24.5619646,186.441538 L24.047876,186.974 L24.3916797,187.159962 C28.5918673,189.382513 33.3683909,190.151099 39.6391981,189.560194 L40.2134135,189.502733 L40.7784657,189.439858 L41.3003964,189.376405 C46.8686285,188.672798 50.1272739,185.179022 49.2752926,181.50199 C48.3821846,177.647462 43.4746402,176.169026 36.5350052,178.344358 Z M19.9303768,153.751546 C13.0876119,154.786734 12.8648828,174.208532 19.7006965,182.608606 L19.968876,182.927 L21.8113668,180.997622 C23.056057,179.702279 24.1492702,178.669272 25.2228981,177.786951 L25.377876,177.662 L25.455709,177.210786 C26.3811309,171.640436 26.5063726,165.526363 25.7371997,161.03521 L25.6480505,160.542982 C24.6580421,155.367594 22.8548074,153.309131 19.9303768,153.751546 Z M28.9620854,137.634587 C26.1415889,138.814714 25.6622458,141.204304 27.3384122,146.212855 C27.6746699,147.217626 28.0875044,148.281094 28.625239,149.530575 L28.8328385,150.008099 L29.4507411,151.382938 L30.9250124,154.57331 L30.871876,154.597 L31.0553899,155.066743 C31.4750317,156.181761 31.8238096,157.399642 32.1006477,158.712352 L32.214885,159.280724 C32.9608961,163.180587 33.1172193,168.027125 32.7087696,172.983551 L32.654876,173.594 L32.8094678,173.535492 C33.2813343,173.362303 33.7750806,173.191919 34.2942942,173.022938 L34.8221298,172.854372 L35.210876,172.736 L35.2205643,172.640738 C35.8507034,166.298498 36.9025107,161.400015 38.4205102,157.825502 L38.5792094,157.460442 L38.8418987,156.6697 C39.2259776,155.47421 39.3521158,154.855408 39.3814552,154.282677 C39.8865996,144.421798 33.9950497,135.528739 28.9620854,137.634587 Z M46.6029325,157.248944 C44.6307155,158.99091 43.0536771,163.719368 42.1390794,170.95791 L42.067876,171.538 L43.876223,171.160001 C44.0074498,171.12989 44.1030661,171.105869 44.1692112,171.086413 C57.2135075,167.24956 64.6326897,159.299703 61.0121267,154.333783 C58.2925395,150.603631 52.7994393,151.775862 46.6029325,157.248944 Z M28.4732106,116.629408 C26.0453835,119.240007 30.2786421,127.007623 39.3741347,134.474627 C39.6775074,134.738961 40.1944228,135.406932 40.9605504,136.509209 C43.3864177,139.763257 45.0802594,144.034605 45.7608839,148.615032 L45.812876,148.988 L45.8765931,148.89641 C47.1404133,147.019902 47.4664188,145.117229 47.4870691,141.454413 L47.4870367,139.208136 L47.5062511,137.296627 L47.521783,136.470159 L47.5089634,136.122632 C47.5044276,136.045978 47.4993188,135.994598 47.4944085,135.973745 C45.7504638,128.567825 43.0208127,123.104315 39.350589,119.591672 C35.4230183,115.832731 30.3460174,114.615612 28.4732106,116.629408 Z M57.8048049,124.9382 C56.0403376,127.621852 55.0731304,129.827699 54.6090342,132.183831 L54.5398939,132.557192 L54.4841887,132.897789 C54.3691444,133.646908 54.3003695,134.322845 54.256204,135.175626 L54.240876,135.488 L54.3411219,135.934665 L54.222876,135.975 L54.2014154,136.840002 L54.1874673,137.739347 L54.1672783,139.840117 C54.1422713,141.997336 54.0923256,143.586062 53.9943694,145.069912 L53.945876,145.742 L54.1083098,145.687914 C54.7216887,145.48388 55.2015515,145.295237 55.4099948,145.170625 L55.4642473,145.13521 C62.3857782,140.091967 66.8788437,135.018659 68.9292746,129.988711 C71.2528834,124.288625 61.4141314,119.448623 57.8048049,124.9382 Z M48.2840373,98.6257859 C45.3557467,103.267425 45.2485713,114.16031 47.697036,119.170787 C48.6363249,120.539958 49.4989843,122.033504 50.2857335,123.651191 L50.507876,124.121 L50.7586176,123.6595 C51.105389,123.033396 51.4858948,122.395921 51.9025405,121.742675 L52.2218385,121.249714 C52.5049174,120.819168 52.8050116,120.412793 53.1214221,120.030826 L53.398876,119.709 L54.0910909,118.432483 C54.5185847,117.40972 54.9869737,116.440291 55.6741456,115.15673 L56.0717334,114.423243 L57.1370709,112.503719 C59.9560683,107.408818 60.5676289,104.704567 59.8004805,100.259065 C58.7784019,94.3362836 51.5993859,93.3706207 48.2840373,98.6257859 Z" id="Combined-Shape-Copy-6" fill="url(#linearGradient-7)" fill-rule="nonzero" transform="translate(41.985529, 141.993934) scale(-1, 1) rotate(8.000000) translate(-41.985529, -141.993934) "></path>
            <path d="M108.222222,87.5555556 C80.1628718,87.5555556 57.3333333,110.385094 57.3333333,138.444444 C57.3333333,166.503795 80.1628718,189.333333 108.222222,189.333333 C136.281573,189.333333 159.111111,166.503795 159.111111,138.444444 C159.111111,110.385094 136.281573,87.5555556 108.222222,87.5555556 Z" id="Shape" fill="url(#linearGradient-8)" fill-rule="nonzero"></path>
            <path d="M108.222222,98.2222222 C86.0443077,98.2222222 68,116.26653 68,138.444444 C68,160.622359 86.0443077,178.666667 108.222222,178.666667 C130.400137,178.666667 148.444444,160.622359 148.444444,138.444444 C148.444444,116.26653 130.400137,98.2222222 108.222222,98.2222222 Z" id="Shape" fill="url(#linearGradient-9)" fill-rule="nonzero"></path>
            <path d="M108.222222,98.2222222 C130.400137,98.2222222 148.444444,116.26653 148.444444,138.444444 C148.444444,138.606103 148.443486,138.767541 148.441574,138.928755 L148.444444,139.402116 C148.444444,117.752247 130.829763,100.137566 109.179894,100.137566 C87.5300252,100.137566 69.9153439,117.752247 69.9153439,139.402116 C69.9153439,160.893955 87.2738112,178.409299 108.706452,178.663856 L108.222222,178.666667 C86.0443077,178.666667 68,160.622359 68,138.444444 C68,116.26653 86.0443077,98.2222222 108.222222,98.2222222 Z" id="Combined-Shape" fill="#749EDC" fill-rule="nonzero"></path>
            <path d="M108.222222,105.777778 C90.2088889,105.777778 75.5555556,120.435778 75.5555556,138.444444 C75.5555556,156.453111 90.2088889,171.111111 108.222222,171.111111 C126.235556,171.111111 140.888889,156.453111 140.888889,138.444444 C140.888889,120.435778 126.235556,105.777778 108.222222,105.777778 Z" id="Shape" fill="url(#linearGradient-10)" fill-rule="nonzero"></path>
            <path d="M102.059926,129.920203 C102.059926,139.833615 109.874163,147.899327 119.478494,147.899327 C123.133262,147.899327 126.528815,146.731366 129.333202,144.738079 C126.293545,151.875036 119.228076,156.888889 111.018047,156.888889 C100.041669,156.888889 91.1111111,147.926987 91.1111111,136.912084 C91.1111111,127.259525 97.9691855,119.183534 107.052222,117.333484 C103.96594,120.57885 102.059926,125.024185 102.059926,129.920203 Z" id="Combined-Shape" fill="#FFFFFF" fill-rule="nonzero"></path>
        </g>
    </g>
</svg>