<?xml version="1.0" encoding="UTF-8"?>
<svg width="176px" height="48px" viewBox="0 0 176 48" version="1.1" xmlns="http://www.w3.org/2000/svg" xmlns:xlink="http://www.w3.org/1999/xlink">
    <!-- Generator: Sketch 64 (93537) - https://sketch.com -->
    <title>tiem/score</title>
    <desc>Created with Sketch.</desc>
    <g id="Symbols" stroke="none" stroke-width="1" fill="none" fill-rule="evenodd">
        <g id="tiem/score" transform="translate(-42.000000, 0.000000)">
            <g id="Group-3" transform="translate(42.000000, 0.000000)">
                <rect id="Rectangle-Copy-6" fill="#1B2553" x="0" y="0" width="176" height="48" rx="24"></rect>
                <g id="icon/score" transform="translate(16.000000, 9.000000)" fill="#FFFFFF">
                    <path d="M14.5707317,22.5621954 L8.46074307,26.2941532 C8.07259671,26.5312316 7.56575197,26.4087667 7.32867366,26.0206204 C7.21525852,25.8349363 7.17993534,25.6119145 7.23042,25.4002712 L8.89163247,18.4360883 C8.96328577,18.1357013 8.86086188,17.820473 8.62633009,17.6195715 L3.18893696,12.9618654 C2.84351826,12.6659775 2.80336561,12.1460958 3.0992535,11.8006771 C3.24080237,11.6354333 3.44199321,11.5329215 3.65887855,11.5155339 L10.795553,10.9433899 C11.1033801,10.9187116 11.3715293,10.7238898 11.4901236,10.4387548 L14.2396185,3.8281763 C14.4142844,3.40822921 14.8963134,3.20938949 15.3162605,3.38405535 C15.5171577,3.46761319 15.6768236,3.62727915 15.7603815,3.8281763 L18.5098764,10.4387548 C18.6284707,10.7238898 18.8966199,10.9187116 19.204447,10.9433899 L26.3411214,11.5155339 C26.7944896,11.5518802 27.1325526,11.9488722 27.0962062,12.4022403 C27.0788186,12.6191257 26.9763068,12.8203165 26.811063,12.9618654 L21.3736699,17.6195715 C21.1391381,17.820473 21.0367142,18.1357013 21.1083675,18.4360883 L22.76958,25.4002712 C22.8751111,25.8426816 22.6020164,26.2868758 22.1596061,26.3924069 C21.9479628,26.4428916 21.724941,26.4075684 21.5392569,26.2941532 L15.4292683,22.5621954 C15.1657253,22.4012244 14.8342747,22.4012244 14.5707317,22.5621954 Z" id="Star"></path>
                </g>
                <text id="Score:-10/10" font-family="Montserrat-SemiBold, Montserrat" font-size="18" font-weight="500" fill="#FFFFFF">
                    <tspan x="54" y="30">Score: 10/10</tspan>
                </text>
            </g>
        </g>
    </g>
</svg>