<?xml version="1.0" encoding="UTF-8"?>
<svg width="143px" height="48px" viewBox="0 0 143 48" version="1.1" xmlns="http://www.w3.org/2000/svg" xmlns:xlink="http://www.w3.org/1999/xlink">
    <!-- Generator: Sketch 64 (93537) - https://sketch.com -->
    <title>Steps</title>
    <desc>Created with Sketch.</desc>
    <g id="Symbols" stroke="none" stroke-width="1" fill="none" fill-rule="evenodd">
        <g id="Steps" transform="translate(-75.000000, 0.000000)">
            <g transform="translate(75.000000, -0.000000)">
                <rect id="Rectangle-Copy-6" fill="#1B2553" x="0" y="0" width="143" height="48" rx="24"></rect>
                <text id="Steps:-6" font-family="Montserrat-SemiBold, Montserrat" font-size="18" font-weight="500" fill="#FFFFFF">
                    <tspan x="54" y="29">Steps: 6</tspan>
                </text>
                <g id="icon/steps" transform="translate(16.000000, 9.000000)" fill="#FFFFFF" fill-rule="nonzero">
                    <path d="M10.5299302,22.6355354 C12.4585543,22.1090377 13.7279071,20.5672445 14.325212,22.8334595 C14.9228363,25.0996745 13.8438545,27.3632895 11.9152304,27.8897871 C9.98660637,28.4162848 7.93884075,27.005791 7.34153585,24.7395761 C6.74391154,22.4733611 8.60130618,23.1620331 10.5299302,22.6355354 Z M15.6744183,16.8057112 C16.2717232,14.5394962 17.541076,16.0812894 19.4697,16.6077871 C21.3980047,17.1339598 23.2553993,16.4456128 22.6580944,18.7118278 C22.0604701,20.9780427 20.0130239,22.3885365 18.0843998,21.8620388 C16.1560952,21.3358661 15.0771134,19.0719262 15.6744183,16.8057112 Z M6.69887411,8.12499964 C10.390985,7.11717911 13.6129179,14.2167727 13.2382448,16.5320624 C12.8386574,19.0014015 13.780291,20.246471 10.1552572,21.2357666 C6.5299039,22.2253872 6.76658996,20.7661437 5.17271218,18.7336027 C3.73438921,16.8996358 3.00676324,9.13282018 6.69887411,8.12499964 Z M16.7617049,10.5043141 C16.3870318,8.18934936 19.6089647,1.0897558 23.3010756,2.09725134 C26.9931864,3.10507187 26.2655605,10.8718875 24.8275569,12.7058544 C23.2333597,14.7383954 23.4697264,16.1973139 19.8446925,15.2080183 C16.2196587,14.2183977 17.1612923,12.9736532 16.7617049,10.5043141 Z" id="Combined-Shape-Copy"></path>
                </g>
            </g>
        </g>
    </g>
</svg>