<?xml version="1.0" encoding="UTF-8"?>
<svg width="218px" height="48px" viewBox="0 0 218 48" version="1.1" xmlns="http://www.w3.org/2000/svg" xmlns:xlink="http://www.w3.org/1999/xlink">
    <!-- Generator: Sketch 64 (93537) - https://sketch.com -->
    <title>item/time</title>
    <desc>Created with Sketch.</desc>
    <g id="Symbols" stroke="none" stroke-width="1" fill="none" fill-rule="evenodd">
        <g id="item/time">
            <g id="Group-4">
                <rect id="Rectangle-Copy-4" fill="#1B2553" x="0" y="0" width="218" height="48" rx="24"></rect>
                <text id="Your-Time:-35-m" font-family="Montserrat-SemiBold, Montserrat" font-size="18" font-weight="500" fill="#FFFFFF">
                    <tspan x="54" y="29">Your Time: 35 m</tspan>
                </text>
                <g id="icon/time" transform="translate(16.000000, 9.000000)" fill="#FFFFFF" fill-rule="nonzero">
                    <path d="M15,3 C8.4,3 3,8.4 3,15 C3,21.6 8.4,27 15,27 C21.6,27 27,21.6 27,15 C27,8.4 21.6,3 15,3 Z M22.5464927,20.3140002 C22.3602365,20.7655722 21.9256389,20.9913581 21.4289559,20.9913581 C21.2426997,20.9913581 21.118529,20.9913581 20.9322728,20.8784651 L13.7450245,17.2656811 C13.6208538,17.2092346 13.496683,17.1527882 13.3725123,17.0398952 C13.3104269,16.9834487 13.2483415,16.9270022 13.1862561,16.8705557 C13.0620854,16.7012162 13,16.4754303 13,16.2496443 L13,9.02794272 C13,8.4070313 13.5587684,7.89901287 14.2417076,7.89901287 C14.9246467,7.89901287 15.4834152,8.4070313 15.4834152,9.02794272 L15.4834152,15.5158399 L21.9256389,18.8463914 C22.5464927,19.0721774 22.8569196,19.7495353 22.5464927,20.3140002 Z" id="Shape-Copy"></path>
                </g>
            </g>
        </g>
    </g>
</svg>