<?xml version="1.0" encoding="UTF-8"?>
<svg width="40px" height="41px" viewBox="0 0 40 41" version="1.1" xmlns="http://www.w3.org/2000/svg" xmlns:xlink="http://www.w3.org/1999/xlink">
    <!-- Generator: Sketch 64 (93537) - https://sketch.com -->
    <title>KB_backspace</title>
    <desc>Created with Sketch.</desc>
    <g id="assets" stroke="none" stroke-width="1" fill="none" fill-rule="evenodd">
        <g id="extras" transform="translate(-74.000000, -333.995662)">
            <g id="ic_keyboard_hide" transform="translate(14.000000, 201.006563)"></g>
            <g id="ic_backspace" transform="translate(18.000000, 17.000585)">
                <g transform="translate(56.000000, 316.995077)" id="Shape">
                    <polygon points="0 0 40 0 40 40.0012997 0 40.0012997"></polygon>
                    <path d="M36.6666667,5 L11.6666667,5 C10.5166667,5 9.61666667,5.58335229 9.01666667,6.46671432 L0,20.0004874 L9.01666667,33.5175932 C9.61666667,34.4009553 10.5166667,35.0009748 11.6666667,35.0009748 L36.6666667,35.0009748 C38.5,35.0009748 40,33.500926 40,31.6675331 L40,8.33344164 C40,6.50004874 38.5,5 36.6666667,5 L36.6666667,5 Z M31.6666667,25.9840151 L29.3166667,28.3340915 L23.3333333,22.3505637 L17.35,28.3340915 L15,25.9840151 L20.9833333,20.0004874 L15,14.0169596 L17.35,11.6668833 L23.3333333,17.650411 L29.3166667,11.6668833 L31.6666667,14.0169596 L25.6833333,20.0004874 L31.6666667,25.9840151 L31.6666667,25.9840151 Z" fill="#FFFFFF"></path>
                </g>
            </g>
        </g>
        <g id="alphabet" transform="translate(-774.000000, -334.000000)">
            <g id="Space-row" transform="translate(18.000000, 209.006823)"></g>
        </g>
    </g>
</svg>