<?xml version="1.0" encoding="UTF-8"?>
<svg width="40px" height="40px" viewBox="0 0 40 40" version="1.1" xmlns="http://www.w3.org/2000/svg" xmlns:xlink="http://www.w3.org/1999/xlink">
    <!-- Generator: Sketch 64 (93537) - https://sketch.com -->
    <title>KB_hide</title>
    <desc>Created with Sketch.</desc>
    <g id="assets" stroke="none" stroke-width="1" fill="none" fill-rule="evenodd">
        <g id="extras" transform="translate(-14.000000, -333.995662)">
            <g id="ic_keyboard_hide" transform="translate(14.000000, 201.006563)">
                <g transform="translate(0.000000, 132.989098)" id="Group">
                    <g>
                        <polygon id="Shape" points="0 0 40 0 40 40.0012997 0 40.0012997"></polygon>
                        <path d="M33.3333333,5.00016246 L6.66666667,5.00016246 C4.825,5.00016246 3.35,6.4918776 3.35,8.3336041 L3.33333333,25.0008123 C3.33333333,26.8425388 4.825,28.334254 6.66666667,28.334254 L33.3333333,28.334254 C35.175,28.334254 36.6666667,26.8425388 36.6666667,25.0008123 L36.6666667,8.3336041 C36.6666667,6.4918776 35.175,5.00016246 33.3333333,5.00016246 L33.3333333,5.00016246 Z M18.3333333,10.0003249 L21.6666667,10.0003249 L21.6666667,13.3337666 L18.3333333,13.3337666 L18.3333333,10.0003249 L18.3333333,10.0003249 Z M18.3333333,15.0004874 L21.6666667,15.0004874 L21.6666667,18.333929 L18.3333333,18.333929 L18.3333333,15.0004874 L18.3333333,15.0004874 Z M13.3333333,10.0003249 L16.6666667,10.0003249 L16.6666667,13.3337666 L13.3333333,13.3337666 L13.3333333,10.0003249 L13.3333333,10.0003249 Z M13.3333333,15.0004874 L16.6666667,15.0004874 L16.6666667,18.333929 L13.3333333,18.333929 L13.3333333,15.0004874 L13.3333333,15.0004874 Z M11.6666667,18.333929 L8.33333333,18.333929 L8.33333333,15.0004874 L11.6666667,15.0004874 L11.6666667,18.333929 L11.6666667,18.333929 Z M11.6666667,13.3337666 L8.33333333,13.3337666 L8.33333333,10.0003249 L11.6666667,10.0003249 L11.6666667,13.3337666 L11.6666667,13.3337666 Z M26.6666667,25.0008123 L13.3333333,25.0008123 L13.3333333,21.6673707 L26.6666667,21.6673707 L26.6666667,25.0008123 L26.6666667,25.0008123 Z M26.6666667,18.333929 L23.3333333,18.333929 L23.3333333,15.0004874 L26.6666667,15.0004874 L26.6666667,18.333929 L26.6666667,18.333929 Z M26.6666667,13.3337666 L23.3333333,13.3337666 L23.3333333,10.0003249 L26.6666667,10.0003249 L26.6666667,13.3337666 L26.6666667,13.3337666 Z M31.6666667,18.333929 L28.3333333,18.333929 L28.3333333,15.0004874 L31.6666667,15.0004874 L31.6666667,18.333929 L31.6666667,18.333929 Z M31.6666667,13.3337666 L28.3333333,13.3337666 L28.3333333,10.0003249 L31.6666667,10.0003249 L31.6666667,13.3337666 L31.6666667,13.3337666 Z M20,38.3345789 L26.6666667,31.6676956 L13.3333333,31.6676956 L20,38.3345789 L20,38.3345789 Z" id="Shape" fill="#FFFFFF"></path>
                    </g>
                </g>
            </g>
            <g id="ic_backspace" transform="translate(18.000000, 17.000585)"></g>
        </g>
        <g id="alphabet" transform="translate(-714.000000, -334.000000)">
            <g id="Space-row" transform="translate(18.000000, 209.006823)"></g>
        </g>
    </g>
</svg>