<?xml version="1.0" encoding="UTF-8"?>
<svg width="32px" height="33px" viewBox="0 0 32 33" version="1.1" xmlns="http://www.w3.org/2000/svg" xmlns:xlink="http://www.w3.org/1999/xlink">
    <!-- Generator: Sketch 64 (93537) - https://sketch.com -->
    <title>KB_language</title>
    <desc>Created with Sketch.</desc>
    <g id="assets" stroke="none" stroke-width="1" fill="none" fill-rule="evenodd">
        <g id="alphabet" transform="translate(-788.000000, -390.000000)">
            <g id="Space-row" transform="translate(18.000000, 209.006823)">
                <g id="ic_language" transform="translate(770.000000, 180.993177)">
                    <g id="Group" transform="translate(0.000000, 0.000520)">
                        <polygon id="Shape" points="0 0 32 0 32 32.0010398 0 32.0010398"></polygon>
                        <path d="M15.9933333,2.66675331 C8.62666667,2.66675331 2.66666667,8.63361385 2.66666667,16.0005199 C2.66666667,23.3674259 8.62666667,29.3342864 15.9933333,29.3342864 C23.36,29.3342864 29.3333333,23.3674259 29.3333333,16.0005199 C29.3333333,8.63361385 23.36,2.66675331 15.9933333,2.66675331 L15.9933333,2.66675331 Z M25.2266667,10.6670133 L21.2933333,10.6670133 C20.86,9.00029243 20.2533333,7.40024044 19.4533333,5.92019236 C21.9066667,6.76021965 23.9466667,8.46027489 25.2266667,10.6670133 L25.2266667,10.6670133 Z M16,5.38017481 C17.1133333,6.9802268 17.98,8.76028463 18.5466667,10.6670133 L13.4533333,10.6670133 C14.02,8.76028463 14.8866667,6.9802268 16,5.38017481 L16,5.38017481 Z M5.68,18.6672732 C5.46,17.8139121 5.33333333,16.9205498 5.33333333,16.0005199 C5.33333333,15.08049 5.46,14.1871276 5.68,13.3337666 L10.18,13.3337666 C10.0733333,14.2071283 10,15.0938238 10,16.0005199 C10,16.907216 10.0733333,17.7939115 10.1866667,18.6672732 L5.68,18.6672732 L5.68,18.6672732 Z M6.76666667,21.3340265 L10.7,21.3340265 C11.1333333,23.0007473 11.74,24.6007993 12.54,26.0875143 C10.0866667,25.247487 8.04666667,23.5407649 6.76666667,21.3340265 L6.76666667,21.3340265 Z M10.7,10.6670133 L6.76666667,10.6670133 C8.04666667,8.46027489 10.0866667,6.75355277 12.54,5.91352547 C11.74,7.40024044 11.1333333,9.00029243 10.7,10.6670133 L10.7,10.6670133 Z M16,26.620865 C14.8933333,25.020813 14.0266667,23.2407551 13.4533333,21.3340265 L18.5466667,21.3340265 C17.9733333,23.2407551 17.1066667,25.020813 16,26.620865 L16,26.620865 Z M19.12,18.6672732 L12.88,18.6672732 C12.7533333,17.7939115 12.6666667,16.907216 12.6666667,16.0005199 C12.6666667,15.0938238 12.7533333,14.2071283 12.88,13.3337666 L19.12,13.3337666 C19.2466667,14.2071283 19.3333333,15.0938238 19.3333333,16.0005199 C19.3333333,16.907216 19.2466667,17.7939115 19.12,18.6672732 L19.12,18.6672732 Z M19.46,26.0808474 C20.26,24.5941324 20.8666667,23.0007473 21.3,21.3340265 L25.2333333,21.3340265 C23.9466667,23.5407649 21.9066667,25.2408201 19.46,26.0808474 L19.46,26.0808474 Z M21.8133333,18.6672732 C21.92,17.7939115 22,16.907216 22,16.0005199 C22,15.0938238 21.9266667,14.2071283 21.8133333,13.3337666 L26.3133333,13.3337666 C26.5333333,14.1871276 26.6666667,15.08049 26.6666667,16.0005199 C26.6666667,16.9205498 26.54,17.8139121 26.3133333,18.6672732 L21.8133333,18.6672732 L21.8133333,18.6672732 Z" id="Shape" fill="#FFFFFF"></path>
                    </g>
                </g>
            </g>
        </g>
    </g>
</svg>