<?xml version="1.0" encoding="UTF-8"?>
<svg width="120px" height="120px" viewBox="0 0 120 120" version="1.1" xmlns="http://www.w3.org/2000/svg" xmlns:xlink="http://www.w3.org/1999/xlink">
    <!-- Generator: Sketch 64 (93537) - https://sketch.com -->
    <title>mode_Explore</title>
    <desc>Created with Sketch.</desc>
    <defs>
        <linearGradient x1="50%" y1="0%" x2="50%" y2="100%" id="linearGradient-1">
            <stop stop-color="#FDA650" offset="0%"></stop>
            <stop stop-color="#C54326" offset="100%"></stop>
        </linearGradient>
    </defs>
    <g id="designs" stroke="none" stroke-width="1" fill="none" fill-rule="evenodd">
        <g id="Group-7" transform="translate(18.000000, 17.000000)">
            <circle id="Oval" stroke="url(#linearGradient-1)" stroke-width="3.60000014" fill="#DDE8ED" cx="42.3000017" cy="42.3000017" r="42.3000017"></circle>
            <circle id="Oval" fill="#767E9C" cx="42.3000017" cy="7.20000029" r="1.80000007"></circle>
            <circle id="Oval" fill="#767E9C" transform="translate(67.500003, 17.100001) rotate(45.000000) translate(-67.500003, -17.100001) " cx="67.5000027" cy="17.1000007" r="1.80000007"></circle>
            <circle id="Oval" fill="#767E9C" transform="translate(77.400003, 42.300002) rotate(90.000000) translate(-77.400003, -42.300002) " cx="77.4000031" cy="42.3000017" r="1.80000007"></circle>
            <circle id="Oval" fill="#767E9C" transform="translate(67.500003, 67.500003) rotate(135.000000) translate(-67.500003, -67.500003) " cx="67.5000027" cy="67.5000027" r="1.80000007"></circle>
            <circle id="Oval" fill="#767E9C" transform="translate(42.300002, 77.400003) rotate(180.000000) translate(-42.300002, -77.400003) " cx="42.3000017" cy="77.4000031" r="1.80000007"></circle>
            <circle id="Oval" fill="#767E9C" transform="translate(17.100001, 67.500003) rotate(225.000000) translate(-17.100001, -67.500003) " cx="17.1000007" cy="67.5000027" r="1.80000007"></circle>
            <circle id="Oval" fill="#767E9C" transform="translate(7.200000, 42.300002) rotate(270.000000) translate(-7.200000, -42.300002) " cx="7.20000029" cy="42.3000017" r="1.80000007"></circle>
            <circle id="Oval" fill="#767E9C" transform="translate(17.100001, 17.100001) rotate(315.000000) translate(-17.100001, -17.100001) " cx="17.1000007" cy="17.1000007" r="1.80000007"></circle>
            <polygon id="Rectangle" fill="#8C3BD8" points="19.8000008 19.8000008 49.500002 35.1000014 63.9000025 63.9000025 35.1000014 48.6000019"></polygon>
            <polygon id="Rectangle" fill="#BC74FF" points="19.8000008 19.8000008 43.1723183 42.3000017 35.1000014 48.6000019"></polygon>
            <circle id="Oval" fill="#DDE8ED" cx="42.3000017" cy="42.3000017" r="2.70000011"></circle>
        </g>
    </g>
</svg>