<?xml version="1.0" encoding="UTF-8"?>
<svg width="120px" height="120px" viewBox="0 0 120 120" version="1.1" xmlns="http://www.w3.org/2000/svg" xmlns:xlink="http://www.w3.org/1999/xlink">
    <!-- Generator: Sketch 64 (93537) - https://sketch.com -->
    <title>error icon 1</title>
    <desc>Created with Sketch.</desc>
    <defs>
        <linearGradient x1="50%" y1="100%" x2="50%" y2="35.7184333%" id="linearGradient-1">
            <stop stop-color="#A91111" offset="0%"></stop>
            <stop stop-color="#FF572D" offset="100%"></stop>
        </linearGradient>
    </defs>
    <g id="designs" stroke="none" stroke-width="1" fill="none" fill-rule="evenodd">
        <g id="noun_Error_1765813-Copy" transform="translate(5.000000, 18.000000)">
            <path d="M58.9964353,2.73838478 C58.172979,1.52690958 56.7967435,0.800728758 55.3242494,0.800728758 C53.8517554,0.800728758 52.4755199,1.52690958 51.6520636,2.73838478 L1.15950812,75.6258672 C0.182637212,77.0047228 0.0527850163,78.8062048 0.821943165,80.3090163 C1.59110131,81.8118278 3.13354504,82.7703229 4.83169397,82.8007288 L105.816805,82.8007288 C107.514954,82.7703229 109.057398,81.8118278 109.826556,80.3090163 C110.595714,78.8062048 110.465862,77.0047228 109.488991,75.6258672 L58.9964353,2.73838478 Z" id="Path" fill="url(#linearGradient-1)" fill-rule="nonzero"></path>
            <g id="Group-3" transform="translate(33.000000, 48.000000)">
                <g id="Group-2">
                    <path d="M7.59635894,5.7266349 C7.85390413,5.96887268 8,6.30708209 8,6.66105693 C8,7.01503178 7.85390413,7.35324118 7.59635894,7.59547897 C7.3546481,7.85358562 7.01717441,8 6.66396958,8 C6.31076475,8 5.97329106,7.85358562 5.73158023,7.59547897 L4,5.88682153 L2.26841977,7.59547897 C2.02670894,7.85358562 1.68923525,8 1.33603042,8 C0.982825587,8 0.645351899,7.85358562 0.403641064,7.59547897 C0.146095875,7.35324118 0,7.01503178 0,6.66105693 C0,6.30708209 0.146095875,5.96887268 0.403641064,5.7266349 L2.1085816,3.99127969 L0.403641064,2.25592448 C0.0705304094,1.92208765 -0.0595641182,1.43550984 0.0623628328,0.979480227 C0.184289784,0.52345061 0.539714608,0.167250932 0.994752208,0.0450581712 C1.44978981,-0.0771345899 1.93530914,0.0532435537 2.26841977,0.387080415 L4,2.09573785 L5.73158023,0.387080415 C6.24652466,-0.128986569 7.08141448,-0.128986542 7.59635888,0.387080474 C8.11130328,0.903147491 8.1113033,1.73985744 7.59635894,2.25592448 L5.8914184,3.99127969 L7.59635894,5.7266349 Z" id="Path" fill="#FFFFFF" fill-rule="nonzero"></path>
                    <path d="M42.5963589,5.72662633 C42.8539041,5.96886503 43,6.30707571 43,6.66105189 C43,7.01502807 42.8539041,7.35323875 42.5963589,7.59547744 C42.3546481,7.85358507 42.0171744,8 41.6639696,8 C41.3107648,8 40.9732911,7.85358507 40.7315802,7.59547744 L39,5.88681357 L37.2684198,7.59547744 C37.0267089,7.85358507 36.6892352,8 36.3360304,8 C35.9828256,8 35.6453519,7.85358507 35.4036411,7.59547744 C35.1460959,7.35323875 35,7.01502807 35,6.66105189 C35,6.30707571 35.1460959,5.96886503 35.4036411,5.72662633 L37.1085816,3.99126459 L35.4036411,2.25590285 C34.8886967,1.73983385 34.8886967,0.903120757 35.4036411,0.387051797 C35.9185855,-0.129017164 36.7534753,-0.12901719 37.2684198,0.387051738 L39,2.09571561 L40.7315802,0.387051738 C41.2465246,-0.129017246 42.0814145,-0.129017246 42.5963589,0.387051738 C43.1113034,0.903120721 43.1113034,1.73983386 42.5963589,2.25590285 L40.8914184,3.99126459 L42.5963589,5.72662633 Z" id="Path" fill="#FFFFFF" fill-rule="nonzero"></path>
                    <line x1="16" y1="18.5" x2="28" y2="18.5" id="Path-7" stroke="#FFFFFF" stroke-width="3" stroke-linecap="round"></line>
                </g>
            </g>
        </g>
    </g>
</svg>